999
DXF file: schnittdaten_laser.dxf
999
Pro/ENGINEER 2021164 by Parametric Technology Corporation
  0
SECTION
  2
HEADER
  9
$ACADVER
  1
AC1015
  9
$DWGCODEPAGE
  3
ANSI_1252
  9
$EXTMAX
 10
210.0
 20
297.0
 30
0.0
  9
$EXTMIN
 10
0.0
 20
0.0
 30
0.0
  9
$LIMMIN
 10
0.0
 20
0.0
  9
$LIMMAX
 10
210.0
 20
297.0
  9
$VIEWCTR
 10
105.0
 20
148.5
  9
$VIEWSIZE
 40
297.0
  9
$CLAYER
  8
0
  9
$LTSCALE
 40
19.36
  9
$CELTYPE
  6
BYLAYER
  9
$DIMSCALE
 40
1.0
  9
$DIMASZ
 40
3.5
  9
$DIMEXO
 40
0.0
  9
$DIMDLI
 40
13.376
  9
$DIMEXE
 40
1.0
  9
$DIMCEN
 40
3.168
  9
$DIMLFAC
 40
1.0
  9
$DIMBLK
  1
_FILLED
  9
$DIMALT
 70
0
  9
$DIMALTF
 40
0.0393700787
  9
$DIMTXT
 40
3.5
  9
$DIMTOL
 70
1
  9
$DIMLIM
 70
0
  9
$DIMTFAC
 40
1.0
  9
$DIMTP
 40
0.001
  9
$DIMTM
 40
0.001
  9
$DIMGAP
 40
0.625
  9
$DIMDSEP
 70
46
  9
$AUNITS
 70
0
  9
$PDMODE
 70
3
  9
$PDSIZE
 40
1.5
  9
$HANDSEED
  5
3EE
  9
$TILEMODE
 70
1
  9
$MEASUREMENT
 70
1
  9
$INSUNITS
 70
4
  0
ENDSEC
  0
SECTION
  2
CLASSES
  0
CLASS
  1
ACDBDICTIONARYWDFLT
  2
AcDbDictionaryWithDefault
  3
AutoCAD 2000
 90
0
280
0
281
0
  0
CLASS
  1
ACDBPLACEHOLDER
  2
AcDbPlaceHolder
  3
AutoCAD 2000
 90
0
280
0
281
0
  0
CLASS
  1
LAYOUT
  2
AcDbLayout
  3
AutoCAD 2000
 90
0
280
0
281
0
  0
ENDSEC
  0
SECTION
  2
TABLES
  0
TABLE
  2
VPORT
  5
8
100
AcDbSymbolTable
 70
2
  0
VPORT
  5
1F4
100
AcDbSymbolTableRecord
100
AcDbViewportTableRecord
  2
*ACTIVE
 70
0
 10
0.0
 20
0.0
 11
1.0
 21
1.0
 12
105.0
 22
148.5
 13
0.0
 23
0.0
 14
1.0
 24
1.0
 15
0.0
 25
0.0
 16
0.0
 26
0.0
 36
1.0
 17
0.0
 27
0.0
 37
0.0
 40
297.0
 41
0.7070707071
 42
50.0
 43
0.0
 44
0.0
 50
0.0
 51
0.0
 71
0
 72
100
 73
1
 74
1
 75
0
 76
0
 77
0
 78
0
  0
ENDTAB
  0
TABLE
  2
LTYPE
  5
5
100
AcDbSymbolTable
 70
6
  0
LTYPE
  5
14
100
AcDbSymbolTableRecord
100
AcDbLinetypeTableRecord
  2
BYBLOCK
 70
0
  3

 72
65
 73
0
 40
0.0
  0
LTYPE
  5
15
100
AcDbSymbolTableRecord
100
AcDbLinetypeTableRecord
  2
BYLAYER
 70
0
  3

 72
65
 73
0
 40
0.0
  0
LTYPE
  5
16
100
AcDbSymbolTableRecord
100
AcDbLinetypeTableRecord
  2
CONTINUOUS
 70
64
  3
Solid line
 72
65
 73
0
 40
0.0
  0
LTYPE
  5
1F5
100
AcDbSymbolTableRecord
100
AcDbLinetypeTableRecord
  2
CENTER
 70
64
  3
____ _ ____ _ ____ _ ____ _ ____ _ ____ _ ____
 72
65
 73
4
 40
0.6
 49
0.375
 74
0
 49
-0.075
 74
0
 49
0.075
 74
0
 49
-0.075
 74
0
  0
LTYPE
  5
1F6
100
AcDbSymbolTableRecord
100
AcDbLinetypeTableRecord
  2
HIDDEN
 70
64
  3
- - - - - - - - - - - - - - - - - - - -
 72
65
 73
2
 40
0.2
 49
0.1
 74
0
 49
-0.1
 74
0
  0
LTYPE
  5
1F7
100
AcDbSymbolTableRecord
100
AcDbLinetypeTableRecord
  2
PHANTOM
 70
64
  3
_____ _ _ _____ _ _ _____ _ _ _____
 72
65
 73
6
 40
0.8
 49
0.45
 74
0
 49
-0.05
 74
0
 49
0.1
 74
0
 49
-0.05
 74
0
 49
0.1
 74
0
 49
-0.05
 74
0
  0
LTYPE
  5
1F8
100
AcDbSymbolTableRecord
100
AcDbLinetypeTableRecord
  2
DOT
 70
64
  3
. . . . . . . . . . . . . . . . . . . .
 72
65
 73
2
 40
0.2
 49
0.1
 74
0
 49
-0.1
 74
0
  0
LTYPE
  5
1F9
100
AcDbSymbolTableRecord
100
AcDbLinetypeTableRecord
  2
DASHED
 70
64
  3
- - - - - - - - - - - - - - - - - - - -
 72
65
 73
2
 40
0.2
 49
0.1
 74
0
 49
-0.1
 74
0
  0
ENDTAB
  0
TABLE
  2
LAYER
  5
2
100
AcDbSymbolTable
 70
36
  0
LAYER
  5
10
100
AcDbSymbolTableRecord
100
AcDbLayerTableRecord
  2
0
 70
0
 62
7
  6
CONTINUOUS
370
-3
390
F
  0
LAYER
  5
1FA
100
AcDbSymbolTableRecord
100
AcDbLayerTableRecord
  2
DEFAULT_1
 70
0
 62
7
  6
CENTER
370
-3
390
F
  0
LAYER
  5
1FB
100
AcDbSymbolTableRecord
100
AcDbLayerTableRecord
  2
DEFAULT_2
 70
0
 62
8
  6
HIDDEN
370
-3
390
F
  0
LAYER
  5
1FC
100
AcDbSymbolTableRecord
100
AcDbLayerTableRecord
  2
DEFAULT_3
 70
0
 62
7
  6
PHANTOM
370
-3
390
F
  0
LAYER
  5
1FD
100
AcDbSymbolTableRecord
100
AcDbLayerTableRecord
  2
S-EBENEN
 70
0
 62
7
  6
CONTINUOUS
370
-3
390
F
  0
LAYER
  5
1FE
100
AcDbSymbolTableRecord
100
AcDbLayerTableRecord
  2
S-KOORDINATENSYSTEM
 70
0
 62
7
  6
CONTINUOUS
370
-3
390
F
  0
LAYER
  5
1FF
100
AcDbSymbolTableRecord
100
AcDbLayerTableRecord
  2
_ACHSEN
 70
0
 62
7
  6
CONTINUOUS
370
-3
390
F
  0
LAYER
  5
200
100
AcDbSymbolTableRecord
100
AcDbLayerTableRecord
  2
_EBENEN
 70
0
 62
7
  6
CONTINUOUS
370
-3
390
F
  0
LAYER
  5
201
100
AcDbSymbolTableRecord
100
AcDbLayerTableRecord
  2
_FLAECHEN
 70
0
 62
7
  6
CONTINUOUS
370
-3
390
F
  0
LAYER
  5
202
100
AcDbSymbolTableRecord
100
AcDbLayerTableRecord
  2
_GEWINDE
 70
0
 62
7
  6
CONTINUOUS
370
-3
390
F
  0
LAYER
  5
203
100
AcDbSymbolTableRecord
100
AcDbLayerTableRecord
  2
_KOORD_SYS
 70
0
 62
7
  6
CONTINUOUS
370
-3
390
F
  0
LAYER
  5
204
100
AcDbSymbolTableRecord
100
AcDbLayerTableRecord
  2
_KOPIE_GEOM
 70
0
 62
7
  6
CONTINUOUS
370
-3
390
F
  0
LAYER
  5
205
100
AcDbSymbolTableRecord
100
AcDbLayerTableRecord
  2
_KOSMETIK
 70
0
 62
7
  6
CONTINUOUS
370
-3
390
F
  0
LAYER
  5
206
100
AcDbSymbolTableRecord
100
AcDbLayerTableRecord
  2
_KURVEN
 70
0
 62
7
  6
CONTINUOUS
370
-3
390
F
  0
LAYER
  5
207
100
AcDbSymbolTableRecord
100
AcDbLayerTableRecord
  2
_NOTIZEN
 70
0
 62
7
  6
CONTINUOUS
370
-3
390
F
  0
LAYER
  5
208
100
AcDbSymbolTableRecord
100
AcDbLayerTableRecord
  2
_PUNKTE
 70
0
 62
7
  6
CONTINUOUS
370
-3
390
F
  0
LAYER
  5
209
100
AcDbSymbolTableRecord
100
AcDbLayerTableRecord
  2
_SAMMELFLAECHEN
 70
0
 62
7
  6
CONTINUOUS
370
-3
390
F
  0
LAYER
  5
20A
100
AcDbSymbolTableRecord
100
AcDbLayerTableRecord
  2
_SYMBOLE
 70
0
 62
7
  6
CONTINUOUS
370
-3
390
F
  0
LAYER
  5
20B
100
AcDbSymbolTableRecord
100
AcDbLayerTableRecord
  2
_TOLERANZEN
 70
0
 62
7
  6
CONTINUOUS
370
-3
390
F
  0
LAYER
  5
20C
100
AcDbSymbolTableRecord
100
AcDbLayerTableRecord
  2
_ZEICH_ELEMENTE
 70
0
 62
7
  6
CONTINUOUS
370
-3
390
F
  0
ENDTAB
  0
TABLE
  2
STYLE
  5
3
100
AcDbSymbolTable
 70
1
  0
STYLE
  5
11
100
AcDbSymbolTableRecord
100
AcDbTextStyleTableRecord
  2
STANDARD
 70
0
 40
0.0
 41
0.8
 50
0.0
 71
0
 42
0.2
  3
txt
  4

  0
STYLE
  5
20D
100
AcDbSymbolTableRecord
100
AcDbTextStyleTableRecord
  2
TEXTSTYLE_1
 70
0
 40
0.0
 41
0.8
 50
0.0
 71
0
 42
0.2
  3
gdt
  4

  0
ENDTAB
  0
TABLE
  2
VIEW
  5
6
100
AcDbSymbolTable
 70
0
  0
ENDTAB
  0
TABLE
  2
UCS
  5
7
100
AcDbSymbolTable
 70
0
  0
ENDTAB
  0
TABLE
  2
APPID
  5
9
100
AcDbSymbolTable
 70
1
  0
APPID
  5
20E
100
AcDbSymbolTableRecord
100
AcDbRegAppTableRecord
  2
ACAD
 70
0
  0
ENDTAB
  0
TABLE
  2
BLOCK_RECORD
  5
1
100
AcDbSymbolTable
 70
0
  0
BLOCK_RECORD
  5
20F
100
AcDbSymbolTableRecord
100
AcDbBlockTableRecord
  2
*Model_Space
  0
BLOCK_RECORD
  5
210
100
AcDbSymbolTableRecord
100
AcDbBlockTableRecord
  2
*Paper_Space
  0
BLOCK_RECORD
  5
211
100
AcDbSymbolTableRecord
100
AcDbBlockTableRecord
  2
_FILLED
  0
ENDTAB
  0
TABLE
  2
DIMSTYLE
  5
A
100
AcDbSymbolTable
 70
1
100
AcDbDimStyleTable
 71
0
  0
DIMSTYLE
105
212
100
AcDbSymbolTableRecord
100
AcDbDimStyleTableRecord
  2
STANDARD
 70
0
  3

  4

 40
1.0
 41
3.5
 42
0.0
 43
0.38
 44
1.0
 45
0.0
 46
0.0
 47
0.001
 48
0.001
140
3.5
141
0.09
142
0.0
143
25.4
144
1.0
145
0.0
146
1.0
147
0.625
 71
1
 72
0
 73
0
 74
0
 75
0
 76
0
 77
1
 78
8
 79
2
170
0
171
2
172
0
173
0
174
0
175
0
176
0
177
0
178
0
270
2
179
3
271
3
272
3
273
2
274
2
275
0
280
0
281
0
282
0
283
1
284
8
285
0
286
0
287
3
288
0
340
11
278
46
341
211
342
211
343
211
344
211
  0
ENDTAB
  0
ENDSEC
  0
SECTION
  2
BLOCKS
  0
BLOCK
  5
20
100
AcDbEntity
  8
0
100
AcDbBlockBegin
  2
*Model_Space
 70
0
 10
0.0
 20
0.0
 30
0.0
  3
*Model_Space
  1

  0
ENDBLK
  5
21
100
AcDbEntity
  8
0
100
AcDbBlockEnd
  0
BLOCK
  5
1C
100
AcDbEntity
  8
0
100
AcDbBlockBegin
  2
*Paper_Space
 70
0
 10
0.0
 20
0.0
 30
0.0
  3
*Paper_Space
  1

  0
ENDBLK
  5
1D
100
AcDbEntity
  8
0
100
AcDbBlockEnd
  0
BLOCK
  5
213
100
AcDbEntity
  8
0
100
AcDbBlockBegin
  2
_FILLED
 70
64
 10
0.0
 20
0.0
  3
_FILLED
  1

  0
SOLID
  5
214
100
AcDbEntity
  8
0
  6
BYBLOCK
 62
0
100
AcDbTrace
 10
0.0
 20
0.0
 11
-1.0
 21
0.1285714286
 12
-1.0
 22
-0.1285714286
 13
-1.0
 23
-0.1285714286
  0
ENDBLK
  5
215
100
AcDbEntity
  8
0
  6
BYBLOCK
 62
0
100
AcDbBlockEnd
  0
ENDSEC
  0
SECTION
  2
ENTITIES
  0
LINE
  5
216
100
AcDbEntity
  8
0
100
AcDbLine
 62
7
  6
CONTINUOUS
 10
231.075855834
 20
273.8362029717
 11
224.075855834
 21
266.8362029717
  0
LINE
  5
217
100
AcDbEntity
  8
0
100
AcDbLine
 62
7
  6
CONTINUOUS
 10
224.075855834
 20
-50.6637970283
 11
231.075855834
 21
-57.6637970283
  0
LINE
  5
218
100
AcDbEntity
  8
0
100
AcDbLine
 62
7
  6
CONTINUOUS
 10
231.075855834
 20
-57.6637970283
 11
388.575855834
 21
-57.6637970283
  0
LINE
  5
219
100
AcDbEntity
  8
0
100
AcDbLine
 62
7
  6
CONTINUOUS
 10
224.075855834
 20
266.8362029717
 11
224.075855834
 21
-50.6637970283
  0
LINE
  5
21A
100
AcDbEntity
  8
0
100
AcDbLine
 62
7
  6
CONTINUOUS
 10
395.575855834
 20
-50.6637970283
 11
395.575855834
 21
266.8362029717
  0
LINE
  5
21B
100
AcDbEntity
  8
0
100
AcDbLine
 62
7
  6
CONTINUOUS
 10
388.575855834
 20
-57.6637970283
 11
395.575855834
 21
-50.6637970283
  0
LINE
  5
21C
100
AcDbEntity
  8
0
100
AcDbLine
 62
7
  6
CONTINUOUS
 10
388.575855834
 20
273.8362029717
 11
231.075855834
 21
273.8362029717
  0
LINE
  5
21D
100
AcDbEntity
  8
0
100
AcDbLine
 62
7
  6
CONTINUOUS
 10
395.575855834
 20
266.8362029717
 11
388.575855834
 21
273.8362029717
  0
LINE
  5
21E
100
AcDbEntity
  8
0
100
AcDbLine
 62
7
  6
CONTINUOUS
 10
428.7468285114
 20
212.6442236943
 11
413.6757606995
 21
227.7152915061
  0
LINE
  5
21F
100
AcDbEntity
  8
0
100
AcDbLine
 62
7
  6
CONTINUOUS
 10
428.7468285114
 20
212.6442236943
 11
590.7468285114
 21
212.6442236943
  0
LINE
  5
220
100
AcDbEntity
  8
0
100
AcDbLine
 62
7
  6
CONTINUOUS
 10
598.7468285114
 20
230.6442236943
 11
420.7468285114
 21
230.6442236943
  0
LINE
  5
221
100
AcDbEntity
  8
0
100
AcDbLine
 62
7
  6
CONTINUOUS
 10
605.8178963233
 20
227.7152915061
 11
590.7468285114
 21
212.6442236943
  0
LINE
  5
222
100
AcDbEntity
  8
0
100
AcDbLine
 62
7
  6
CONTINUOUS
 10
417.7137250046
 20
240.3970383274
 11
402.6426571927
 21
255.4681061392
  0
LINE
  5
223
100
AcDbEntity
  8
0
100
AcDbLine
 62
7
  6
CONTINUOUS
 10
417.7137250046
 20
240.3970383274
 11
739.7137250046
 21
240.3970383274
  0
LINE
  5
224
100
AcDbEntity
  8
0
100
AcDbLine
 62
7
  6
CONTINUOUS
 10
747.7137250046
 20
258.3970383274
 11
409.7137250046
 21
258.3970383274
  0
LINE
  5
225
100
AcDbEntity
  8
0
100
AcDbLine
 62
7
  6
CONTINUOUS
 10
754.7847928164
 20
255.4681061392
 11
739.7137250046
 21
240.3970383274
  0
LINE
  5
226
100
AcDbEntity
  8
0
100
AcDbLine
 62
7
  6
CONTINUOUS
 10
757.1090394329
 20
260.121957342
 11
757.1090394329
 21
82.121957342
  0
LINE
  5
227
100
AcDbEntity
  8
0
100
AcDbLine
 62
7
  6
CONTINUOUS
 10
767.1090394329
 20
72.121957342
 11
1105.1090394329
 21
72.121957342
  0
LINE
  5
228
100
AcDbEntity
  8
0
100
AcDbLine
 62
7
  6
CONTINUOUS
 10
1105.1090394329
 20
270.121957342
 11
767.1090394329
 21
270.121957342
  0
LINE
  5
229
100
AcDbEntity
  8
0
100
AcDbLine
 62
7
  6
CONTINUOUS
 10
1115.1090394329
 20
82.121957342
 11
1115.1090394329
 21
260.121957342
  0
LINE
  5
22A
100
AcDbEntity
  8
0
100
AcDbLine
 62
7
  6
CONTINUOUS
 10
591.0124146498
 20
63.270902063
 11
591.0124146498
 21
8.270902063
  0
LINE
  5
22B
100
AcDbEntity
  8
0
100
AcDbLine
 62
7
  6
CONTINUOUS
 10
603.9124146498
 20
17.270902063
 11
603.9124146498
 21
13.070902063
  0
LINE
  5
22C
100
AcDbEntity
  8
0
100
AcDbLine
 62
7
  6
CONTINUOUS
 10
606.1124146498
 20
17.270902063
 11
606.1124146498
 21
13.070902063
  0
LINE
  5
22D
100
AcDbEntity
  8
0
100
AcDbLine
 62
7
  6
CONTINUOUS
 10
613.9124146498
 20
17.270902063
 11
613.9124146498
 21
13.070902063
  0
LINE
  5
22E
100
AcDbEntity
  8
0
100
AcDbLine
 62
7
  6
CONTINUOUS
 10
616.1124146498
 20
17.270902063
 11
616.1124146498
 21
13.070902063
  0
LINE
  5
22F
100
AcDbEntity
  8
0
100
AcDbLine
 62
7
  6
CONTINUOUS
 10
623.9124146498
 20
17.270902063
 11
623.9124146498
 21
13.070902063
  0
LINE
  5
230
100
AcDbEntity
  8
0
100
AcDbLine
 62
7
  6
CONTINUOUS
 10
626.1124146498
 20
17.270902063
 11
626.1124146498
 21
13.070902063
  0
LINE
  5
231
100
AcDbEntity
  8
0
100
AcDbLine
 62
7
  6
CONTINUOUS
 10
633.9124146498
 20
17.270902063
 11
633.9124146498
 21
13.070902063
  0
LINE
  5
232
100
AcDbEntity
  8
0
100
AcDbLine
 62
7
  6
CONTINUOUS
 10
636.1124146498
 20
17.270902063
 11
636.1124146498
 21
13.070902063
  0
LINE
  5
233
100
AcDbEntity
  8
0
100
AcDbLine
 62
7
  6
CONTINUOUS
 10
643.9124146498
 20
17.270902063
 11
643.9124146498
 21
13.070902063
  0
LINE
  5
234
100
AcDbEntity
  8
0
100
AcDbLine
 62
7
  6
CONTINUOUS
 10
646.1124146498
 20
17.270902063
 11
646.1124146498
 21
13.070902063
  0
LINE
  5
235
100
AcDbEntity
  8
0
100
AcDbLine
 62
7
  6
CONTINUOUS
 10
653.9124146498
 20
17.270902063
 11
653.9124146498
 21
13.070902063
  0
LINE
  5
236
100
AcDbEntity
  8
0
100
AcDbLine
 62
7
  6
CONTINUOUS
 10
656.1124146498
 20
17.270902063
 11
656.1124146498
 21
13.070902063
  0
LINE
  5
237
100
AcDbEntity
  8
0
100
AcDbLine
 62
7
  6
CONTINUOUS
 10
663.9124146498
 20
17.270902063
 11
663.9124146498
 21
13.070902063
  0
LINE
  5
238
100
AcDbEntity
  8
0
100
AcDbLine
 62
7
  6
CONTINUOUS
 10
666.1124146498
 20
17.270902063
 11
666.1124146498
 21
13.070902063
  0
LINE
  5
239
100
AcDbEntity
  8
0
100
AcDbLine
 62
7
  6
CONTINUOUS
 10
673.9124146498
 20
17.270902063
 11
673.9124146498
 21
13.070902063
  0
LINE
  5
23A
100
AcDbEntity
  8
0
100
AcDbLine
 62
7
  6
CONTINUOUS
 10
676.1124146498
 20
17.270902063
 11
676.1124146498
 21
13.070902063
  0
LINE
  5
23B
100
AcDbEntity
  8
0
100
AcDbLine
 62
7
  6
CONTINUOUS
 10
683.9124146498
 20
17.270902063
 11
683.9124146498
 21
13.070902063
  0
LINE
  5
23C
100
AcDbEntity
  8
0
100
AcDbLine
 62
7
  6
CONTINUOUS
 10
686.1124146498
 20
17.270902063
 11
686.1124146498
 21
13.070902063
  0
LINE
  5
23D
100
AcDbEntity
  8
0
100
AcDbLine
 62
7
  6
CONTINUOUS
 10
693.9124146498
 20
17.270902063
 11
693.9124146498
 21
13.070902063
  0
LINE
  5
23E
100
AcDbEntity
  8
0
100
AcDbLine
 62
7
  6
CONTINUOUS
 10
696.1124146498
 20
17.270902063
 11
696.1124146498
 21
13.070902063
  0
LINE
  5
23F
100
AcDbEntity
  8
0
100
AcDbLine
 62
7
  6
CONTINUOUS
 10
703.9124146498
 20
17.270902063
 11
703.9124146498
 21
13.070902063
  0
LINE
  5
240
100
AcDbEntity
  8
0
100
AcDbLine
 62
7
  6
CONTINUOUS
 10
706.1124146498
 20
17.270902063
 11
706.1124146498
 21
13.070902063
  0
LINE
  5
241
100
AcDbEntity
  8
0
100
AcDbLine
 62
7
  6
CONTINUOUS
 10
713.9124146498
 20
17.270902063
 11
713.9124146498
 21
13.070902063
  0
LINE
  5
242
100
AcDbEntity
  8
0
100
AcDbLine
 62
7
  6
CONTINUOUS
 10
716.1124146498
 20
17.270902063
 11
716.1124146498
 21
13.070902063
  0
LINE
  5
243
100
AcDbEntity
  8
0
100
AcDbLine
 62
7
  6
CONTINUOUS
 10
723.9124146498
 20
17.270902063
 11
723.9124146498
 21
13.070902063
  0
LINE
  5
244
100
AcDbEntity
  8
0
100
AcDbLine
 62
7
  6
CONTINUOUS
 10
726.1124146498
 20
17.270902063
 11
726.1124146498
 21
13.070902063
  0
LINE
  5
245
100
AcDbEntity
  8
0
100
AcDbLine
 62
7
  6
CONTINUOUS
 10
733.9124146498
 20
17.270902063
 11
733.9124146498
 21
13.070902063
  0
LINE
  5
246
100
AcDbEntity
  8
0
100
AcDbLine
 62
7
  6
CONTINUOUS
 10
591.0124146498
 20
8.270902063
 11
919.0124146498
 21
8.270902063
  0
LINE
  5
247
100
AcDbEntity
  8
0
100
AcDbLine
 62
7
  6
CONTINUOUS
 10
603.9124146498
 20
13.070902063
 11
606.1124146498
 21
13.070902063
  0
LINE
  5
248
100
AcDbEntity
  8
0
100
AcDbLine
 62
7
  6
CONTINUOUS
 10
613.9124146498
 20
13.070902063
 11
616.1124146498
 21
13.070902063
  0
LINE
  5
249
100
AcDbEntity
  8
0
100
AcDbLine
 62
7
  6
CONTINUOUS
 10
623.9124146498
 20
13.070902063
 11
626.1124146498
 21
13.070902063
  0
LINE
  5
24A
100
AcDbEntity
  8
0
100
AcDbLine
 62
7
  6
CONTINUOUS
 10
633.9124146498
 20
13.070902063
 11
636.1124146498
 21
13.070902063
  0
LINE
  5
24B
100
AcDbEntity
  8
0
100
AcDbLine
 62
7
  6
CONTINUOUS
 10
643.9124146498
 20
13.070902063
 11
646.1124146498
 21
13.070902063
  0
LINE
  5
24C
100
AcDbEntity
  8
0
100
AcDbLine
 62
7
  6
CONTINUOUS
 10
653.9124146498
 20
13.070902063
 11
656.1124146498
 21
13.070902063
  0
LINE
  5
24D
100
AcDbEntity
  8
0
100
AcDbLine
 62
7
  6
CONTINUOUS
 10
663.9124146498
 20
13.070902063
 11
666.1124146498
 21
13.070902063
  0
LINE
  5
24E
100
AcDbEntity
  8
0
100
AcDbLine
 62
7
  6
CONTINUOUS
 10
673.9124146498
 20
13.070902063
 11
676.1124146498
 21
13.070902063
  0
LINE
  5
24F
100
AcDbEntity
  8
0
100
AcDbLine
 62
7
  6
CONTINUOUS
 10
683.9124146498
 20
13.070902063
 11
686.1124146498
 21
13.070902063
  0
LINE
  5
250
100
AcDbEntity
  8
0
100
AcDbLine
 62
7
  6
CONTINUOUS
 10
693.9124146498
 20
13.070902063
 11
696.1124146498
 21
13.070902063
  0
LINE
  5
251
100
AcDbEntity
  8
0
100
AcDbLine
 62
7
  6
CONTINUOUS
 10
703.9124146498
 20
13.070902063
 11
706.1124146498
 21
13.070902063
  0
LINE
  5
252
100
AcDbEntity
  8
0
100
AcDbLine
 62
7
  6
CONTINUOUS
 10
713.9124146498
 20
13.070902063
 11
716.1124146498
 21
13.070902063
  0
LINE
  5
253
100
AcDbEntity
  8
0
100
AcDbLine
 62
7
  6
CONTINUOUS
 10
723.9124146498
 20
13.070902063
 11
726.1124146498
 21
13.070902063
  0
LINE
  5
254
100
AcDbEntity
  8
0
100
AcDbLine
 62
7
  6
CONTINUOUS
 10
733.9124146498
 20
13.070902063
 11
736.1124146498
 21
13.070902063
  0
LINE
  5
255
100
AcDbEntity
  8
0
100
AcDbLine
 62
7
  6
CONTINUOUS
 10
743.9124146498
 20
13.070902063
 11
746.1124146498
 21
13.070902063
  0
LINE
  5
256
100
AcDbEntity
  8
0
100
AcDbLine
 62
7
  6
CONTINUOUS
 10
753.9124146498
 20
13.070902063
 11
756.1124146498
 21
13.070902063
  0
LINE
  5
257
100
AcDbEntity
  8
0
100
AcDbLine
 62
7
  6
CONTINUOUS
 10
763.9124146498
 20
13.070902063
 11
766.1124146498
 21
13.070902063
  0
LINE
  5
258
100
AcDbEntity
  8
0
100
AcDbLine
 62
7
  6
CONTINUOUS
 10
773.9124146498
 20
13.070902063
 11
776.1124146498
 21
13.070902063
  0
LINE
  5
259
100
AcDbEntity
  8
0
100
AcDbLine
 62
7
  6
CONTINUOUS
 10
783.9124146498
 20
13.070902063
 11
786.1124146498
 21
13.070902063
  0
LINE
  5
25A
100
AcDbEntity
  8
0
100
AcDbLine
 62
7
  6
CONTINUOUS
 10
793.9124146498
 20
13.070902063
 11
796.1124146498
 21
13.070902063
  0
LINE
  5
25B
100
AcDbEntity
  8
0
100
AcDbLine
 62
7
  6
CONTINUOUS
 10
803.9124146498
 20
13.070902063
 11
806.1124146498
 21
13.070902063
  0
LINE
  5
25C
100
AcDbEntity
  8
0
100
AcDbLine
 62
7
  6
CONTINUOUS
 10
813.9124146498
 20
13.070902063
 11
816.1124146498
 21
13.070902063
  0
LINE
  5
25D
100
AcDbEntity
  8
0
100
AcDbLine
 62
7
  6
CONTINUOUS
 10
823.9124146498
 20
13.070902063
 11
826.1124146498
 21
13.070902063
  0
LINE
  5
25E
100
AcDbEntity
  8
0
100
AcDbLine
 62
7
  6
CONTINUOUS
 10
833.9124146498
 20
13.070902063
 11
836.1124146498
 21
13.070902063
  0
LINE
  5
25F
100
AcDbEntity
  8
0
100
AcDbLine
 62
7
  6
CONTINUOUS
 10
843.9124146498
 20
13.070902063
 11
846.1124146498
 21
13.070902063
  0
LINE
  5
260
100
AcDbEntity
  8
0
100
AcDbLine
 62
7
  6
CONTINUOUS
 10
853.9124146498
 20
13.070902063
 11
856.1124146498
 21
13.070902063
  0
LINE
  5
261
100
AcDbEntity
  8
0
100
AcDbLine
 62
7
  6
CONTINUOUS
 10
863.9124146498
 20
13.070902063
 11
866.1124146498
 21
13.070902063
  0
LINE
  5
262
100
AcDbEntity
  8
0
100
AcDbLine
 62
7
  6
CONTINUOUS
 10
873.9124146498
 20
13.070902063
 11
876.1124146498
 21
13.070902063
  0
LINE
  5
263
100
AcDbEntity
  8
0
100
AcDbLine
 62
7
  6
CONTINUOUS
 10
883.9124146498
 20
13.070902063
 11
886.1124146498
 21
13.070902063
  0
LINE
  5
264
100
AcDbEntity
  8
0
100
AcDbLine
 62
7
  6
CONTINUOUS
 10
893.9124146498
 20
13.070902063
 11
896.1124146498
 21
13.070902063
  0
LINE
  5
265
100
AcDbEntity
  8
0
100
AcDbLine
 62
7
  6
CONTINUOUS
 10
903.9124146498
 20
13.070902063
 11
906.1124146498
 21
13.070902063
  0
LINE
  5
266
100
AcDbEntity
  8
0
100
AcDbLine
 62
7
  6
CONTINUOUS
 10
736.1124146498
 20
17.270902063
 11
736.1124146498
 21
13.070902063
  0
LINE
  5
267
100
AcDbEntity
  8
0
100
AcDbLine
 62
7
  6
CONTINUOUS
 10
743.9124146498
 20
17.270902063
 11
743.9124146498
 21
13.070902063
  0
LINE
  5
268
100
AcDbEntity
  8
0
100
AcDbLine
 62
7
  6
CONTINUOUS
 10
603.9124146498
 20
17.270902063
 11
606.1124146498
 21
17.270902063
  0
LINE
  5
269
100
AcDbEntity
  8
0
100
AcDbLine
 62
7
  6
CONTINUOUS
 10
613.9124146498
 20
17.270902063
 11
616.1124146498
 21
17.270902063
  0
LINE
  5
26A
100
AcDbEntity
  8
0
100
AcDbLine
 62
7
  6
CONTINUOUS
 10
623.9124146498
 20
17.270902063
 11
626.1124146498
 21
17.270902063
  0
LINE
  5
26B
100
AcDbEntity
  8
0
100
AcDbLine
 62
7
  6
CONTINUOUS
 10
633.9124146498
 20
17.270902063
 11
636.1124146498
 21
17.270902063
  0
LINE
  5
26C
100
AcDbEntity
  8
0
100
AcDbLine
 62
7
  6
CONTINUOUS
 10
643.9124146498
 20
17.270902063
 11
646.1124146498
 21
17.270902063
  0
LINE
  5
26D
100
AcDbEntity
  8
0
100
AcDbLine
 62
7
  6
CONTINUOUS
 10
653.9124146498
 20
17.270902063
 11
656.1124146498
 21
17.270902063
  0
LINE
  5
26E
100
AcDbEntity
  8
0
100
AcDbLine
 62
7
  6
CONTINUOUS
 10
663.9124146498
 20
17.270902063
 11
666.1124146498
 21
17.270902063
  0
LINE
  5
26F
100
AcDbEntity
  8
0
100
AcDbLine
 62
7
  6
CONTINUOUS
 10
673.9124146498
 20
17.270902063
 11
676.1124146498
 21
17.270902063
  0
LINE
  5
270
100
AcDbEntity
  8
0
100
AcDbLine
 62
7
  6
CONTINUOUS
 10
683.9124146498
 20
17.270902063
 11
686.1124146498
 21
17.270902063
  0
LINE
  5
271
100
AcDbEntity
  8
0
100
AcDbLine
 62
7
  6
CONTINUOUS
 10
693.9124146498
 20
17.270902063
 11
696.1124146498
 21
17.270902063
  0
LINE
  5
272
100
AcDbEntity
  8
0
100
AcDbLine
 62
7
  6
CONTINUOUS
 10
703.9124146498
 20
17.270902063
 11
706.1124146498
 21
17.270902063
  0
LINE
  5
273
100
AcDbEntity
  8
0
100
AcDbLine
 62
7
  6
CONTINUOUS
 10
713.9124146498
 20
17.270902063
 11
716.1124146498
 21
17.270902063
  0
LINE
  5
274
100
AcDbEntity
  8
0
100
AcDbLine
 62
7
  6
CONTINUOUS
 10
723.9124146498
 20
17.270902063
 11
726.1124146498
 21
17.270902063
  0
LINE
  5
275
100
AcDbEntity
  8
0
100
AcDbLine
 62
7
  6
CONTINUOUS
 10
733.9124146498
 20
17.270902063
 11
736.1124146498
 21
17.270902063
  0
LINE
  5
276
100
AcDbEntity
  8
0
100
AcDbLine
 62
7
  6
CONTINUOUS
 10
743.9124146498
 20
17.270902063
 11
746.1124146498
 21
17.270902063
  0
LINE
  5
277
100
AcDbEntity
  8
0
100
AcDbLine
 62
7
  6
CONTINUOUS
 10
753.9124146498
 20
17.270902063
 11
756.1124146498
 21
17.270902063
  0
LINE
  5
278
100
AcDbEntity
  8
0
100
AcDbLine
 62
7
  6
CONTINUOUS
 10
763.9124146498
 20
17.270902063
 11
766.1124146498
 21
17.270902063
  0
LINE
  5
279
100
AcDbEntity
  8
0
100
AcDbLine
 62
7
  6
CONTINUOUS
 10
773.9124146498
 20
17.270902063
 11
776.1124146498
 21
17.270902063
  0
LINE
  5
27A
100
AcDbEntity
  8
0
100
AcDbLine
 62
7
  6
CONTINUOUS
 10
783.9124146498
 20
17.270902063
 11
786.1124146498
 21
17.270902063
  0
LINE
  5
27B
100
AcDbEntity
  8
0
100
AcDbLine
 62
7
  6
CONTINUOUS
 10
793.9124146498
 20
17.270902063
 11
796.1124146498
 21
17.270902063
  0
LINE
  5
27C
100
AcDbEntity
  8
0
100
AcDbLine
 62
7
  6
CONTINUOUS
 10
803.9124146498
 20
17.270902063
 11
806.1124146498
 21
17.270902063
  0
LINE
  5
27D
100
AcDbEntity
  8
0
100
AcDbLine
 62
7
  6
CONTINUOUS
 10
813.9124146498
 20
17.270902063
 11
816.1124146498
 21
17.270902063
  0
LINE
  5
27E
100
AcDbEntity
  8
0
100
AcDbLine
 62
7
  6
CONTINUOUS
 10
823.9124146498
 20
17.270902063
 11
826.1124146498
 21
17.270902063
  0
LINE
  5
27F
100
AcDbEntity
  8
0
100
AcDbLine
 62
7
  6
CONTINUOUS
 10
833.9124146498
 20
17.270902063
 11
836.1124146498
 21
17.270902063
  0
LINE
  5
280
100
AcDbEntity
  8
0
100
AcDbLine
 62
7
  6
CONTINUOUS
 10
843.9124146498
 20
17.270902063
 11
846.1124146498
 21
17.270902063
  0
LINE
  5
281
100
AcDbEntity
  8
0
100
AcDbLine
 62
7
  6
CONTINUOUS
 10
853.9124146498
 20
17.270902063
 11
856.1124146498
 21
17.270902063
  0
LINE
  5
282
100
AcDbEntity
  8
0
100
AcDbLine
 62
7
  6
CONTINUOUS
 10
863.9124146498
 20
17.270902063
 11
866.1124146498
 21
17.270902063
  0
LINE
  5
283
100
AcDbEntity
  8
0
100
AcDbLine
 62
7
  6
CONTINUOUS
 10
873.9124146498
 20
17.270902063
 11
876.1124146498
 21
17.270902063
  0
LINE
  5
284
100
AcDbEntity
  8
0
100
AcDbLine
 62
7
  6
CONTINUOUS
 10
883.9124146498
 20
17.270902063
 11
886.1124146498
 21
17.270902063
  0
LINE
  5
285
100
AcDbEntity
  8
0
100
AcDbLine
 62
7
  6
CONTINUOUS
 10
893.9124146498
 20
17.270902063
 11
896.1124146498
 21
17.270902063
  0
LINE
  5
286
100
AcDbEntity
  8
0
100
AcDbLine
 62
7
  6
CONTINUOUS
 10
903.9124146498
 20
17.270902063
 11
906.1124146498
 21
17.270902063
  0
LINE
  5
287
100
AcDbEntity
  8
0
100
AcDbLine
 62
7
  6
CONTINUOUS
 10
746.1124146498
 20
17.270902063
 11
746.1124146498
 21
13.070902063
  0
LINE
  5
288
100
AcDbEntity
  8
0
100
AcDbLine
 62
7
  6
CONTINUOUS
 10
753.9124146498
 20
17.270902063
 11
753.9124146498
 21
13.070902063
  0
LINE
  5
289
100
AcDbEntity
  8
0
100
AcDbLine
 62
7
  6
CONTINUOUS
 10
756.1124146498
 20
17.270902063
 11
756.1124146498
 21
13.070902063
  0
LINE
  5
28A
100
AcDbEntity
  8
0
100
AcDbLine
 62
7
  6
CONTINUOUS
 10
763.9124146498
 20
17.270902063
 11
763.9124146498
 21
13.070902063
  0
LINE
  5
28B
100
AcDbEntity
  8
0
100
AcDbLine
 62
7
  6
CONTINUOUS
 10
766.1124146498
 20
17.270902063
 11
766.1124146498
 21
13.070902063
  0
LINE
  5
28C
100
AcDbEntity
  8
0
100
AcDbLine
 62
7
  6
CONTINUOUS
 10
773.9124146498
 20
17.270902063
 11
773.9124146498
 21
13.070902063
  0
LINE
  5
28D
100
AcDbEntity
  8
0
100
AcDbLine
 62
7
  6
CONTINUOUS
 10
776.1124146498
 20
17.270902063
 11
776.1124146498
 21
13.070902063
  0
LINE
  5
28E
100
AcDbEntity
  8
0
100
AcDbLine
 62
7
  6
CONTINUOUS
 10
783.9124146498
 20
17.270902063
 11
783.9124146498
 21
13.070902063
  0
LINE
  5
28F
100
AcDbEntity
  8
0
100
AcDbLine
 62
7
  6
CONTINUOUS
 10
786.1124146498
 20
17.270902063
 11
786.1124146498
 21
13.070902063
  0
LINE
  5
290
100
AcDbEntity
  8
0
100
AcDbLine
 62
7
  6
CONTINUOUS
 10
919.0124146498
 20
63.270902063
 11
591.0124146498
 21
63.270902063
  0
LINE
  5
291
100
AcDbEntity
  8
0
100
AcDbLine
 62
7
  6
CONTINUOUS
 10
793.9124146498
 20
17.270902063
 11
793.9124146498
 21
13.070902063
  0
LINE
  5
292
100
AcDbEntity
  8
0
100
AcDbLine
 62
7
  6
CONTINUOUS
 10
796.1124146498
 20
17.270902063
 11
796.1124146498
 21
13.070902063
  0
LINE
  5
293
100
AcDbEntity
  8
0
100
AcDbLine
 62
7
  6
CONTINUOUS
 10
803.9124146498
 20
17.270902063
 11
803.9124146498
 21
13.070902063
  0
LINE
  5
294
100
AcDbEntity
  8
0
100
AcDbLine
 62
7
  6
CONTINUOUS
 10
806.1124146498
 20
17.270902063
 11
806.1124146498
 21
13.070902063
  0
LINE
  5
295
100
AcDbEntity
  8
0
100
AcDbLine
 62
7
  6
CONTINUOUS
 10
813.9124146498
 20
17.270902063
 11
813.9124146498
 21
13.070902063
  0
LINE
  5
296
100
AcDbEntity
  8
0
100
AcDbLine
 62
7
  6
CONTINUOUS
 10
816.1124146498
 20
17.270902063
 11
816.1124146498
 21
13.070902063
  0
LINE
  5
297
100
AcDbEntity
  8
0
100
AcDbLine
 62
7
  6
CONTINUOUS
 10
823.9124146498
 20
17.270902063
 11
823.9124146498
 21
13.070902063
  0
LINE
  5
298
100
AcDbEntity
  8
0
100
AcDbLine
 62
7
  6
CONTINUOUS
 10
826.1124146498
 20
17.270902063
 11
826.1124146498
 21
13.070902063
  0
LINE
  5
299
100
AcDbEntity
  8
0
100
AcDbLine
 62
7
  6
CONTINUOUS
 10
833.9124146498
 20
17.270902063
 11
833.9124146498
 21
13.070902063
  0
LINE
  5
29A
100
AcDbEntity
  8
0
100
AcDbLine
 62
7
  6
CONTINUOUS
 10
836.1124146498
 20
17.270902063
 11
836.1124146498
 21
13.070902063
  0
LINE
  5
29B
100
AcDbEntity
  8
0
100
AcDbLine
 62
7
  6
CONTINUOUS
 10
843.9124146498
 20
17.270902063
 11
843.9124146498
 21
13.070902063
  0
LINE
  5
29C
100
AcDbEntity
  8
0
100
AcDbLine
 62
7
  6
CONTINUOUS
 10
846.1124146498
 20
17.270902063
 11
846.1124146498
 21
13.070902063
  0
LINE
  5
29D
100
AcDbEntity
  8
0
100
AcDbLine
 62
7
  6
CONTINUOUS
 10
853.9124146498
 20
17.270902063
 11
853.9124146498
 21
13.070902063
  0
LINE
  5
29E
100
AcDbEntity
  8
0
100
AcDbLine
 62
7
  6
CONTINUOUS
 10
856.1124146498
 20
17.270902063
 11
856.1124146498
 21
13.070902063
  0
LINE
  5
29F
100
AcDbEntity
  8
0
100
AcDbLine
 62
7
  6
CONTINUOUS
 10
863.9124146498
 20
17.270902063
 11
863.9124146498
 21
13.070902063
  0
LINE
  5
2A0
100
AcDbEntity
  8
0
100
AcDbLine
 62
7
  6
CONTINUOUS
 10
866.1124146498
 20
17.270902063
 11
866.1124146498
 21
13.070902063
  0
LINE
  5
2A1
100
AcDbEntity
  8
0
100
AcDbLine
 62
7
  6
CONTINUOUS
 10
873.9124146498
 20
17.270902063
 11
873.9124146498
 21
13.070902063
  0
LINE
  5
2A2
100
AcDbEntity
  8
0
100
AcDbLine
 62
7
  6
CONTINUOUS
 10
876.1124146498
 20
17.270902063
 11
876.1124146498
 21
13.070902063
  0
LINE
  5
2A3
100
AcDbEntity
  8
0
100
AcDbLine
 62
7
  6
CONTINUOUS
 10
883.9124146498
 20
17.270902063
 11
883.9124146498
 21
13.070902063
  0
LINE
  5
2A4
100
AcDbEntity
  8
0
100
AcDbLine
 62
7
  6
CONTINUOUS
 10
886.1124146498
 20
17.270902063
 11
886.1124146498
 21
13.070902063
  0
LINE
  5
2A5
100
AcDbEntity
  8
0
100
AcDbLine
 62
7
  6
CONTINUOUS
 10
893.9124146498
 20
17.270902063
 11
893.9124146498
 21
13.070902063
  0
LINE
  5
2A6
100
AcDbEntity
  8
0
100
AcDbLine
 62
7
  6
CONTINUOUS
 10
896.1124146498
 20
17.270902063
 11
896.1124146498
 21
13.070902063
  0
LINE
  5
2A7
100
AcDbEntity
  8
0
100
AcDbLine
 62
7
  6
CONTINUOUS
 10
903.9124146498
 20
17.270902063
 11
903.9124146498
 21
13.070902063
  0
LINE
  5
2A8
100
AcDbEntity
  8
0
100
AcDbLine
 62
7
  6
CONTINUOUS
 10
906.1124146498
 20
17.270902063
 11
906.1124146498
 21
13.070902063
  0
LINE
  5
2A9
100
AcDbEntity
  8
0
100
AcDbLine
 62
7
  6
CONTINUOUS
 10
919.0124146498
 20
8.270902063
 11
919.0124146498
 21
63.270902063
  0
LINE
  5
2AA
100
AcDbEntity
  8
0
100
AcDbLine
 62
7
  6
CONTINUOUS
 10
405.1602153457
 20
-4.376313117
 11
405.1602153457
 21
-59.376313117
  0
LINE
  5
2AB
100
AcDbEntity
  8
0
100
AcDbLine
 62
7
  6
CONTINUOUS
 10
418.0602153457
 20
-13.376313117
 11
418.0602153457
 21
-9.176313117
  0
LINE
  5
2AC
100
AcDbEntity
  8
0
100
AcDbLine
 62
7
  6
CONTINUOUS
 10
420.2602153457
 20
-13.376313117
 11
420.2602153457
 21
-9.176313117
  0
LINE
  5
2AD
100
AcDbEntity
  8
0
100
AcDbLine
 62
7
  6
CONTINUOUS
 10
428.0602153457
 20
-13.376313117
 11
428.0602153457
 21
-9.176313117
  0
LINE
  5
2AE
100
AcDbEntity
  8
0
100
AcDbLine
 62
7
  6
CONTINUOUS
 10
430.2602153457
 20
-13.376313117
 11
430.2602153457
 21
-9.176313117
  0
LINE
  5
2AF
100
AcDbEntity
  8
0
100
AcDbLine
 62
7
  6
CONTINUOUS
 10
438.0602153457
 20
-13.376313117
 11
438.0602153457
 21
-9.176313117
  0
LINE
  5
2B0
100
AcDbEntity
  8
0
100
AcDbLine
 62
7
  6
CONTINUOUS
 10
440.2602153457
 20
-13.376313117
 11
440.2602153457
 21
-9.176313117
  0
LINE
  5
2B1
100
AcDbEntity
  8
0
100
AcDbLine
 62
7
  6
CONTINUOUS
 10
448.0602153457
 20
-13.376313117
 11
448.0602153457
 21
-9.176313117
  0
LINE
  5
2B2
100
AcDbEntity
  8
0
100
AcDbLine
 62
7
  6
CONTINUOUS
 10
450.2602153457
 20
-13.376313117
 11
450.2602153457
 21
-9.176313117
  0
LINE
  5
2B3
100
AcDbEntity
  8
0
100
AcDbLine
 62
7
  6
CONTINUOUS
 10
458.0602153457
 20
-13.376313117
 11
458.0602153457
 21
-9.176313117
  0
LINE
  5
2B4
100
AcDbEntity
  8
0
100
AcDbLine
 62
7
  6
CONTINUOUS
 10
460.2602153457
 20
-13.376313117
 11
460.2602153457
 21
-9.176313117
  0
LINE
  5
2B5
100
AcDbEntity
  8
0
100
AcDbLine
 62
7
  6
CONTINUOUS
 10
468.0602153457
 20
-13.376313117
 11
468.0602153457
 21
-9.176313117
  0
LINE
  5
2B6
100
AcDbEntity
  8
0
100
AcDbLine
 62
7
  6
CONTINUOUS
 10
470.2602153457
 20
-13.376313117
 11
470.2602153457
 21
-9.176313117
  0
LINE
  5
2B7
100
AcDbEntity
  8
0
100
AcDbLine
 62
7
  6
CONTINUOUS
 10
478.0602153457
 20
-13.376313117
 11
478.0602153457
 21
-9.176313117
  0
LINE
  5
2B8
100
AcDbEntity
  8
0
100
AcDbLine
 62
7
  6
CONTINUOUS
 10
480.2602153457
 20
-13.376313117
 11
480.2602153457
 21
-9.176313117
  0
LINE
  5
2B9
100
AcDbEntity
  8
0
100
AcDbLine
 62
7
  6
CONTINUOUS
 10
488.0602153457
 20
-13.376313117
 11
488.0602153457
 21
-9.176313117
  0
LINE
  5
2BA
100
AcDbEntity
  8
0
100
AcDbLine
 62
7
  6
CONTINUOUS
 10
490.2602153457
 20
-13.376313117
 11
490.2602153457
 21
-9.176313117
  0
LINE
  5
2BB
100
AcDbEntity
  8
0
100
AcDbLine
 62
7
  6
CONTINUOUS
 10
498.0602153457
 20
-13.376313117
 11
498.0602153457
 21
-9.176313117
  0
LINE
  5
2BC
100
AcDbEntity
  8
0
100
AcDbLine
 62
7
  6
CONTINUOUS
 10
500.2602153457
 20
-13.376313117
 11
500.2602153457
 21
-9.176313117
  0
LINE
  5
2BD
100
AcDbEntity
  8
0
100
AcDbLine
 62
7
  6
CONTINUOUS
 10
508.0602153457
 20
-13.376313117
 11
508.0602153457
 21
-9.176313117
  0
LINE
  5
2BE
100
AcDbEntity
  8
0
100
AcDbLine
 62
7
  6
CONTINUOUS
 10
510.2602153457
 20
-13.376313117
 11
510.2602153457
 21
-9.176313117
  0
LINE
  5
2BF
100
AcDbEntity
  8
0
100
AcDbLine
 62
7
  6
CONTINUOUS
 10
518.0602153457
 20
-13.376313117
 11
518.0602153457
 21
-9.176313117
  0
LINE
  5
2C0
100
AcDbEntity
  8
0
100
AcDbLine
 62
7
  6
CONTINUOUS
 10
520.2602153457
 20
-13.376313117
 11
520.2602153457
 21
-9.176313117
  0
LINE
  5
2C1
100
AcDbEntity
  8
0
100
AcDbLine
 62
7
  6
CONTINUOUS
 10
528.0602153457
 20
-13.376313117
 11
528.0602153457
 21
-9.176313117
  0
LINE
  5
2C2
100
AcDbEntity
  8
0
100
AcDbLine
 62
7
  6
CONTINUOUS
 10
530.2602153457
 20
-13.376313117
 11
530.2602153457
 21
-9.176313117
  0
LINE
  5
2C3
100
AcDbEntity
  8
0
100
AcDbLine
 62
7
  6
CONTINUOUS
 10
538.0602153457
 20
-13.376313117
 11
538.0602153457
 21
-9.176313117
  0
LINE
  5
2C4
100
AcDbEntity
  8
0
100
AcDbLine
 62
7
  6
CONTINUOUS
 10
540.2602153457
 20
-13.376313117
 11
540.2602153457
 21
-9.176313117
  0
LINE
  5
2C5
100
AcDbEntity
  8
0
100
AcDbLine
 62
7
  6
CONTINUOUS
 10
548.0602153457
 20
-13.376313117
 11
548.0602153457
 21
-9.176313117
  0
LINE
  5
2C6
100
AcDbEntity
  8
0
100
AcDbLine
 62
7
  6
CONTINUOUS
 10
405.1602153457
 20
-59.376313117
 11
733.1602153457
 21
-59.376313117
  0
LINE
  5
2C7
100
AcDbEntity
  8
0
100
AcDbLine
 62
7
  6
CONTINUOUS
 10
550.2602153457
 20
-13.376313117
 11
550.2602153457
 21
-9.176313117
  0
LINE
  5
2C8
100
AcDbEntity
  8
0
100
AcDbLine
 62
7
  6
CONTINUOUS
 10
558.0602153457
 20
-13.376313117
 11
558.0602153457
 21
-9.176313117
  0
LINE
  5
2C9
100
AcDbEntity
  8
0
100
AcDbLine
 62
7
  6
CONTINUOUS
 10
581.1202153457
 20
-49.876313117
 11
564.8202153457
 21
-49.876313117
  0
LINE
  5
2CA
100
AcDbEntity
  8
0
100
AcDbLine
 62
7
  6
CONTINUOUS
 10
560.2602153457
 20
-13.376313117
 11
560.2602153457
 21
-9.176313117
  0
LINE
  5
2CB
100
AcDbEntity
  8
0
100
AcDbLine
 62
7
  6
CONTINUOUS
 10
564.8202153457
 20
-49.876313117
 11
564.8202153457
 21
-28.676313117
  0
LINE
  5
2CC
100
AcDbEntity
  8
0
100
AcDbLine
 62
7
  6
CONTINUOUS
 10
568.0602153457
 20
-13.376313117
 11
568.0602153457
 21
-9.176313117
  0
LINE
  5
2CD
100
AcDbEntity
  8
0
100
AcDbLine
 62
7
  6
CONTINUOUS
 10
570.2602153457
 20
-13.376313117
 11
570.2602153457
 21
-9.176313117
  0
LINE
  5
2CE
100
AcDbEntity
  8
0
100
AcDbLine
 62
7
  6
CONTINUOUS
 10
578.0602153457
 20
-13.376313117
 11
578.0602153457
 21
-9.176313117
  0
LINE
  5
2CF
100
AcDbEntity
  8
0
100
AcDbLine
 62
7
  6
CONTINUOUS
 10
580.2602153457
 20
-13.376313117
 11
580.2602153457
 21
-9.176313117
  0
LINE
  5
2D0
100
AcDbEntity
  8
0
100
AcDbLine
 62
7
  6
CONTINUOUS
 10
581.1202153457
 20
-28.676313117
 11
581.1202153457
 21
-49.876313117
  0
LINE
  5
2D1
100
AcDbEntity
  8
0
100
AcDbLine
 62
7
  6
CONTINUOUS
 10
564.8202153457
 20
-28.676313117
 11
581.1202153457
 21
-28.676313117
  0
LINE
  5
2D2
100
AcDbEntity
  8
0
100
AcDbLine
 62
7
  6
CONTINUOUS
 10
588.0602153457
 20
-13.376313117
 11
588.0602153457
 21
-9.176313117
  0
LINE
  5
2D3
100
AcDbEntity
  8
0
100
AcDbLine
 62
7
  6
CONTINUOUS
 10
590.2602153457
 20
-13.376313117
 11
590.2602153457
 21
-9.176313117
  0
LINE
  5
2D4
100
AcDbEntity
  8
0
100
AcDbLine
 62
7
  6
CONTINUOUS
 10
418.0602153457
 20
-13.376313117
 11
420.2602153457
 21
-13.376313117
  0
LINE
  5
2D5
100
AcDbEntity
  8
0
100
AcDbLine
 62
7
  6
CONTINUOUS
 10
428.0602153457
 20
-13.376313117
 11
430.2602153457
 21
-13.376313117
  0
LINE
  5
2D6
100
AcDbEntity
  8
0
100
AcDbLine
 62
7
  6
CONTINUOUS
 10
438.0602153457
 20
-13.376313117
 11
440.2602153457
 21
-13.376313117
  0
LINE
  5
2D7
100
AcDbEntity
  8
0
100
AcDbLine
 62
7
  6
CONTINUOUS
 10
448.0602153457
 20
-13.376313117
 11
450.2602153457
 21
-13.376313117
  0
LINE
  5
2D8
100
AcDbEntity
  8
0
100
AcDbLine
 62
7
  6
CONTINUOUS
 10
458.0602153457
 20
-13.376313117
 11
460.2602153457
 21
-13.376313117
  0
LINE
  5
2D9
100
AcDbEntity
  8
0
100
AcDbLine
 62
7
  6
CONTINUOUS
 10
468.0602153457
 20
-13.376313117
 11
470.2602153457
 21
-13.376313117
  0
LINE
  5
2DA
100
AcDbEntity
  8
0
100
AcDbLine
 62
7
  6
CONTINUOUS
 10
478.0602153457
 20
-13.376313117
 11
480.2602153457
 21
-13.376313117
  0
LINE
  5
2DB
100
AcDbEntity
  8
0
100
AcDbLine
 62
7
  6
CONTINUOUS
 10
488.0602153457
 20
-13.376313117
 11
490.2602153457
 21
-13.376313117
  0
LINE
  5
2DC
100
AcDbEntity
  8
0
100
AcDbLine
 62
7
  6
CONTINUOUS
 10
498.0602153457
 20
-13.376313117
 11
500.2602153457
 21
-13.376313117
  0
LINE
  5
2DD
100
AcDbEntity
  8
0
100
AcDbLine
 62
7
  6
CONTINUOUS
 10
508.0602153457
 20
-13.376313117
 11
510.2602153457
 21
-13.376313117
  0
LINE
  5
2DE
100
AcDbEntity
  8
0
100
AcDbLine
 62
7
  6
CONTINUOUS
 10
518.0602153457
 20
-13.376313117
 11
520.2602153457
 21
-13.376313117
  0
LINE
  5
2DF
100
AcDbEntity
  8
0
100
AcDbLine
 62
7
  6
CONTINUOUS
 10
528.0602153457
 20
-13.376313117
 11
530.2602153457
 21
-13.376313117
  0
LINE
  5
2E0
100
AcDbEntity
  8
0
100
AcDbLine
 62
7
  6
CONTINUOUS
 10
538.0602153457
 20
-13.376313117
 11
540.2602153457
 21
-13.376313117
  0
LINE
  5
2E1
100
AcDbEntity
  8
0
100
AcDbLine
 62
7
  6
CONTINUOUS
 10
548.0602153457
 20
-13.376313117
 11
550.2602153457
 21
-13.376313117
  0
LINE
  5
2E2
100
AcDbEntity
  8
0
100
AcDbLine
 62
7
  6
CONTINUOUS
 10
558.0602153457
 20
-13.376313117
 11
560.2602153457
 21
-13.376313117
  0
LINE
  5
2E3
100
AcDbEntity
  8
0
100
AcDbLine
 62
7
  6
CONTINUOUS
 10
568.0602153457
 20
-13.376313117
 11
570.2602153457
 21
-13.376313117
  0
LINE
  5
2E4
100
AcDbEntity
  8
0
100
AcDbLine
 62
7
  6
CONTINUOUS
 10
578.0602153457
 20
-13.376313117
 11
580.2602153457
 21
-13.376313117
  0
LINE
  5
2E5
100
AcDbEntity
  8
0
100
AcDbLine
 62
7
  6
CONTINUOUS
 10
588.0602153457
 20
-13.376313117
 11
590.2602153457
 21
-13.376313117
  0
LINE
  5
2E6
100
AcDbEntity
  8
0
100
AcDbLine
 62
7
  6
CONTINUOUS
 10
598.0602153457
 20
-13.376313117
 11
600.2602153457
 21
-13.376313117
  0
LINE
  5
2E7
100
AcDbEntity
  8
0
100
AcDbLine
 62
7
  6
CONTINUOUS
 10
608.0602153457
 20
-13.376313117
 11
610.2602153457
 21
-13.376313117
  0
LINE
  5
2E8
100
AcDbEntity
  8
0
100
AcDbLine
 62
7
  6
CONTINUOUS
 10
618.0602153457
 20
-13.376313117
 11
620.2602153457
 21
-13.376313117
  0
LINE
  5
2E9
100
AcDbEntity
  8
0
100
AcDbLine
 62
7
  6
CONTINUOUS
 10
628.0602153457
 20
-13.376313117
 11
630.2602153457
 21
-13.376313117
  0
LINE
  5
2EA
100
AcDbEntity
  8
0
100
AcDbLine
 62
7
  6
CONTINUOUS
 10
638.0602153457
 20
-13.376313117
 11
640.2602153457
 21
-13.376313117
  0
LINE
  5
2EB
100
AcDbEntity
  8
0
100
AcDbLine
 62
7
  6
CONTINUOUS
 10
648.0602153457
 20
-13.376313117
 11
650.2602153457
 21
-13.376313117
  0
LINE
  5
2EC
100
AcDbEntity
  8
0
100
AcDbLine
 62
7
  6
CONTINUOUS
 10
658.0602153457
 20
-13.376313117
 11
660.2602153457
 21
-13.376313117
  0
LINE
  5
2ED
100
AcDbEntity
  8
0
100
AcDbLine
 62
7
  6
CONTINUOUS
 10
668.0602153457
 20
-13.376313117
 11
670.2602153457
 21
-13.376313117
  0
LINE
  5
2EE
100
AcDbEntity
  8
0
100
AcDbLine
 62
7
  6
CONTINUOUS
 10
678.0602153457
 20
-13.376313117
 11
680.2602153457
 21
-13.376313117
  0
LINE
  5
2EF
100
AcDbEntity
  8
0
100
AcDbLine
 62
7
  6
CONTINUOUS
 10
688.0602153457
 20
-13.376313117
 11
690.2602153457
 21
-13.376313117
  0
LINE
  5
2F0
100
AcDbEntity
  8
0
100
AcDbLine
 62
7
  6
CONTINUOUS
 10
698.0602153457
 20
-13.376313117
 11
700.2602153457
 21
-13.376313117
  0
LINE
  5
2F1
100
AcDbEntity
  8
0
100
AcDbLine
 62
7
  6
CONTINUOUS
 10
708.0602153457
 20
-13.376313117
 11
710.2602153457
 21
-13.376313117
  0
LINE
  5
2F2
100
AcDbEntity
  8
0
100
AcDbLine
 62
7
  6
CONTINUOUS
 10
718.0602153457
 20
-13.376313117
 11
720.2602153457
 21
-13.376313117
  0
LINE
  5
2F3
100
AcDbEntity
  8
0
100
AcDbLine
 62
7
  6
CONTINUOUS
 10
418.0602153457
 20
-9.176313117
 11
420.2602153457
 21
-9.176313117
  0
LINE
  5
2F4
100
AcDbEntity
  8
0
100
AcDbLine
 62
7
  6
CONTINUOUS
 10
428.0602153457
 20
-9.176313117
 11
430.2602153457
 21
-9.176313117
  0
LINE
  5
2F5
100
AcDbEntity
  8
0
100
AcDbLine
 62
7
  6
CONTINUOUS
 10
438.0602153457
 20
-9.176313117
 11
440.2602153457
 21
-9.176313117
  0
LINE
  5
2F6
100
AcDbEntity
  8
0
100
AcDbLine
 62
7
  6
CONTINUOUS
 10
448.0602153457
 20
-9.176313117
 11
450.2602153457
 21
-9.176313117
  0
LINE
  5
2F7
100
AcDbEntity
  8
0
100
AcDbLine
 62
7
  6
CONTINUOUS
 10
458.0602153457
 20
-9.176313117
 11
460.2602153457
 21
-9.176313117
  0
LINE
  5
2F8
100
AcDbEntity
  8
0
100
AcDbLine
 62
7
  6
CONTINUOUS
 10
468.0602153457
 20
-9.176313117
 11
470.2602153457
 21
-9.176313117
  0
LINE
  5
2F9
100
AcDbEntity
  8
0
100
AcDbLine
 62
7
  6
CONTINUOUS
 10
478.0602153457
 20
-9.176313117
 11
480.2602153457
 21
-9.176313117
  0
LINE
  5
2FA
100
AcDbEntity
  8
0
100
AcDbLine
 62
7
  6
CONTINUOUS
 10
488.0602153457
 20
-9.176313117
 11
490.2602153457
 21
-9.176313117
  0
LINE
  5
2FB
100
AcDbEntity
  8
0
100
AcDbLine
 62
7
  6
CONTINUOUS
 10
498.0602153457
 20
-9.176313117
 11
500.2602153457
 21
-9.176313117
  0
LINE
  5
2FC
100
AcDbEntity
  8
0
100
AcDbLine
 62
7
  6
CONTINUOUS
 10
508.0602153457
 20
-9.176313117
 11
510.2602153457
 21
-9.176313117
  0
LINE
  5
2FD
100
AcDbEntity
  8
0
100
AcDbLine
 62
7
  6
CONTINUOUS
 10
518.0602153457
 20
-9.176313117
 11
520.2602153457
 21
-9.176313117
  0
LINE
  5
2FE
100
AcDbEntity
  8
0
100
AcDbLine
 62
7
  6
CONTINUOUS
 10
528.0602153457
 20
-9.176313117
 11
530.2602153457
 21
-9.176313117
  0
LINE
  5
2FF
100
AcDbEntity
  8
0
100
AcDbLine
 62
7
  6
CONTINUOUS
 10
538.0602153457
 20
-9.176313117
 11
540.2602153457
 21
-9.176313117
  0
LINE
  5
300
100
AcDbEntity
  8
0
100
AcDbLine
 62
7
  6
CONTINUOUS
 10
548.0602153457
 20
-9.176313117
 11
550.2602153457
 21
-9.176313117
  0
LINE
  5
301
100
AcDbEntity
  8
0
100
AcDbLine
 62
7
  6
CONTINUOUS
 10
558.0602153457
 20
-9.176313117
 11
560.2602153457
 21
-9.176313117
  0
LINE
  5
302
100
AcDbEntity
  8
0
100
AcDbLine
 62
7
  6
CONTINUOUS
 10
568.0602153457
 20
-9.176313117
 11
570.2602153457
 21
-9.176313117
  0
LINE
  5
303
100
AcDbEntity
  8
0
100
AcDbLine
 62
7
  6
CONTINUOUS
 10
578.0602153457
 20
-9.176313117
 11
580.2602153457
 21
-9.176313117
  0
LINE
  5
304
100
AcDbEntity
  8
0
100
AcDbLine
 62
7
  6
CONTINUOUS
 10
588.0602153457
 20
-9.176313117
 11
590.2602153457
 21
-9.176313117
  0
LINE
  5
305
100
AcDbEntity
  8
0
100
AcDbLine
 62
7
  6
CONTINUOUS
 10
598.0602153457
 20
-9.176313117
 11
600.2602153457
 21
-9.176313117
  0
LINE
  5
306
100
AcDbEntity
  8
0
100
AcDbLine
 62
7
  6
CONTINUOUS
 10
608.0602153457
 20
-9.176313117
 11
610.2602153457
 21
-9.176313117
  0
LINE
  5
307
100
AcDbEntity
  8
0
100
AcDbLine
 62
7
  6
CONTINUOUS
 10
618.0602153457
 20
-9.176313117
 11
620.2602153457
 21
-9.176313117
  0
LINE
  5
308
100
AcDbEntity
  8
0
100
AcDbLine
 62
7
  6
CONTINUOUS
 10
628.0602153457
 20
-9.176313117
 11
630.2602153457
 21
-9.176313117
  0
LINE
  5
309
100
AcDbEntity
  8
0
100
AcDbLine
 62
7
  6
CONTINUOUS
 10
638.0602153457
 20
-9.176313117
 11
640.2602153457
 21
-9.176313117
  0
LINE
  5
30A
100
AcDbEntity
  8
0
100
AcDbLine
 62
7
  6
CONTINUOUS
 10
648.0602153457
 20
-9.176313117
 11
650.2602153457
 21
-9.176313117
  0
LINE
  5
30B
100
AcDbEntity
  8
0
100
AcDbLine
 62
7
  6
CONTINUOUS
 10
658.0602153457
 20
-9.176313117
 11
660.2602153457
 21
-9.176313117
  0
LINE
  5
30C
100
AcDbEntity
  8
0
100
AcDbLine
 62
7
  6
CONTINUOUS
 10
668.0602153457
 20
-9.176313117
 11
670.2602153457
 21
-9.176313117
  0
LINE
  5
30D
100
AcDbEntity
  8
0
100
AcDbLine
 62
7
  6
CONTINUOUS
 10
678.0602153457
 20
-9.176313117
 11
680.2602153457
 21
-9.176313117
  0
LINE
  5
30E
100
AcDbEntity
  8
0
100
AcDbLine
 62
7
  6
CONTINUOUS
 10
688.0602153457
 20
-9.176313117
 11
690.2602153457
 21
-9.176313117
  0
LINE
  5
30F
100
AcDbEntity
  8
0
100
AcDbLine
 62
7
  6
CONTINUOUS
 10
698.0602153457
 20
-9.176313117
 11
700.2602153457
 21
-9.176313117
  0
LINE
  5
310
100
AcDbEntity
  8
0
100
AcDbLine
 62
7
  6
CONTINUOUS
 10
708.0602153457
 20
-9.176313117
 11
710.2602153457
 21
-9.176313117
  0
LINE
  5
311
100
AcDbEntity
  8
0
100
AcDbLine
 62
7
  6
CONTINUOUS
 10
718.0602153457
 20
-9.176313117
 11
720.2602153457
 21
-9.176313117
  0
LINE
  5
312
100
AcDbEntity
  8
0
100
AcDbLine
 62
7
  6
CONTINUOUS
 10
598.0602153457
 20
-13.376313117
 11
598.0602153457
 21
-9.176313117
  0
LINE
  5
313
100
AcDbEntity
  8
0
100
AcDbLine
 62
7
  6
CONTINUOUS
 10
600.2602153457
 20
-13.376313117
 11
600.2602153457
 21
-9.176313117
  0
LINE
  5
314
100
AcDbEntity
  8
0
100
AcDbLine
 62
7
  6
CONTINUOUS
 10
733.1602153457
 20
-4.376313117
 11
405.1602153457
 21
-4.376313117
  0
LINE
  5
315
100
AcDbEntity
  8
0
100
AcDbLine
 62
7
  6
CONTINUOUS
 10
608.0602153457
 20
-13.376313117
 11
608.0602153457
 21
-9.176313117
  0
LINE
  5
316
100
AcDbEntity
  8
0
100
AcDbLine
 62
7
  6
CONTINUOUS
 10
610.2602153457
 20
-13.376313117
 11
610.2602153457
 21
-9.176313117
  0
LINE
  5
317
100
AcDbEntity
  8
0
100
AcDbLine
 62
7
  6
CONTINUOUS
 10
618.0602153457
 20
-13.376313117
 11
618.0602153457
 21
-9.176313117
  0
LINE
  5
318
100
AcDbEntity
  8
0
100
AcDbLine
 62
7
  6
CONTINUOUS
 10
620.2602153457
 20
-13.376313117
 11
620.2602153457
 21
-9.176313117
  0
LINE
  5
319
100
AcDbEntity
  8
0
100
AcDbLine
 62
7
  6
CONTINUOUS
 10
628.0602153457
 20
-13.376313117
 11
628.0602153457
 21
-9.176313117
  0
LINE
  5
31A
100
AcDbEntity
  8
0
100
AcDbLine
 62
7
  6
CONTINUOUS
 10
630.2602153457
 20
-13.376313117
 11
630.2602153457
 21
-9.176313117
  0
LINE
  5
31B
100
AcDbEntity
  8
0
100
AcDbLine
 62
7
  6
CONTINUOUS
 10
638.0602153457
 20
-13.376313117
 11
638.0602153457
 21
-9.176313117
  0
LINE
  5
31C
100
AcDbEntity
  8
0
100
AcDbLine
 62
7
  6
CONTINUOUS
 10
640.2602153457
 20
-13.376313117
 11
640.2602153457
 21
-9.176313117
  0
LINE
  5
31D
100
AcDbEntity
  8
0
100
AcDbLine
 62
7
  6
CONTINUOUS
 10
648.0602153457
 20
-13.376313117
 11
648.0602153457
 21
-9.176313117
  0
LINE
  5
31E
100
AcDbEntity
  8
0
100
AcDbLine
 62
7
  6
CONTINUOUS
 10
650.2602153457
 20
-13.376313117
 11
650.2602153457
 21
-9.176313117
  0
LINE
  5
31F
100
AcDbEntity
  8
0
100
AcDbLine
 62
7
  6
CONTINUOUS
 10
658.0602153457
 20
-13.376313117
 11
658.0602153457
 21
-9.176313117
  0
LINE
  5
320
100
AcDbEntity
  8
0
100
AcDbLine
 62
7
  6
CONTINUOUS
 10
660.2602153457
 20
-13.376313117
 11
660.2602153457
 21
-9.176313117
  0
LINE
  5
321
100
AcDbEntity
  8
0
100
AcDbLine
 62
7
  6
CONTINUOUS
 10
668.0602153457
 20
-13.376313117
 11
668.0602153457
 21
-9.176313117
  0
LINE
  5
322
100
AcDbEntity
  8
0
100
AcDbLine
 62
7
  6
CONTINUOUS
 10
670.2602153457
 20
-13.376313117
 11
670.2602153457
 21
-9.176313117
  0
LINE
  5
323
100
AcDbEntity
  8
0
100
AcDbLine
 62
7
  6
CONTINUOUS
 10
678.0602153457
 20
-13.376313117
 11
678.0602153457
 21
-9.176313117
  0
LINE
  5
324
100
AcDbEntity
  8
0
100
AcDbLine
 62
7
  6
CONTINUOUS
 10
680.2602153457
 20
-13.376313117
 11
680.2602153457
 21
-9.176313117
  0
LINE
  5
325
100
AcDbEntity
  8
0
100
AcDbLine
 62
7
  6
CONTINUOUS
 10
688.0602153457
 20
-13.376313117
 11
688.0602153457
 21
-9.176313117
  0
LINE
  5
326
100
AcDbEntity
  8
0
100
AcDbLine
 62
7
  6
CONTINUOUS
 10
690.2602153457
 20
-13.376313117
 11
690.2602153457
 21
-9.176313117
  0
LINE
  5
327
100
AcDbEntity
  8
0
100
AcDbLine
 62
7
  6
CONTINUOUS
 10
698.0602153457
 20
-13.376313117
 11
698.0602153457
 21
-9.176313117
  0
LINE
  5
328
100
AcDbEntity
  8
0
100
AcDbLine
 62
7
  6
CONTINUOUS
 10
700.2602153457
 20
-13.376313117
 11
700.2602153457
 21
-9.176313117
  0
LINE
  5
329
100
AcDbEntity
  8
0
100
AcDbLine
 62
7
  6
CONTINUOUS
 10
708.0602153457
 20
-13.376313117
 11
708.0602153457
 21
-9.176313117
  0
LINE
  5
32A
100
AcDbEntity
  8
0
100
AcDbLine
 62
7
  6
CONTINUOUS
 10
710.2602153457
 20
-13.376313117
 11
710.2602153457
 21
-9.176313117
  0
LINE
  5
32B
100
AcDbEntity
  8
0
100
AcDbLine
 62
7
  6
CONTINUOUS
 10
718.0602153457
 20
-13.376313117
 11
718.0602153457
 21
-9.176313117
  0
LINE
  5
32C
100
AcDbEntity
  8
0
100
AcDbLine
 62
7
  6
CONTINUOUS
 10
720.2602153457
 20
-13.376313117
 11
720.2602153457
 21
-9.176313117
  0
LINE
  5
32D
100
AcDbEntity
  8
0
100
AcDbLine
 62
7
  6
CONTINUOUS
 10
733.1602153457
 20
-59.376313117
 11
733.1602153457
 21
-4.376313117
  0
LINE
  5
32E
100
AcDbEntity
  8
0
100
AcDbLine
 62
7
  6
CONTINUOUS
 10
408.7135161007
 20
66.8910302518
 11
408.7135161007
 21
11.8910302518
  0
LINE
  5
32F
100
AcDbEntity
  8
0
100
AcDbLine
 62
7
  6
CONTINUOUS
 10
421.6135161007
 20
57.8910302518
 11
421.6135161007
 21
62.0910302518
  0
LINE
  5
330
100
AcDbEntity
  8
0
100
AcDbLine
 62
7
  6
CONTINUOUS
 10
423.8135161007
 20
57.8910302518
 11
423.8135161007
 21
62.0910302518
  0
LINE
  5
331
100
AcDbEntity
  8
0
100
AcDbLine
 62
7
  6
CONTINUOUS
 10
431.6135161007
 20
57.8910302518
 11
431.6135161007
 21
62.0910302518
  0
LINE
  5
332
100
AcDbEntity
  8
0
100
AcDbLine
 62
7
  6
CONTINUOUS
 10
433.8135161007
 20
57.8910302518
 11
433.8135161007
 21
62.0910302518
  0
LINE
  5
333
100
AcDbEntity
  8
0
100
AcDbLine
 62
7
  6
CONTINUOUS
 10
441.6135161007
 20
57.8910302518
 11
441.6135161007
 21
62.0910302518
  0
LINE
  5
334
100
AcDbEntity
  8
0
100
AcDbLine
 62
7
  6
CONTINUOUS
 10
443.8135161007
 20
57.8910302518
 11
443.8135161007
 21
62.0910302518
  0
LINE
  5
335
100
AcDbEntity
  8
0
100
AcDbLine
 62
7
  6
CONTINUOUS
 10
451.6135161007
 20
57.8910302518
 11
451.6135161007
 21
62.0910302518
  0
LINE
  5
336
100
AcDbEntity
  8
0
100
AcDbLine
 62
7
  6
CONTINUOUS
 10
453.8135161007
 20
57.8910302518
 11
453.8135161007
 21
62.0910302518
  0
LINE
  5
337
100
AcDbEntity
  8
0
100
AcDbLine
 62
7
  6
CONTINUOUS
 10
461.6135161007
 20
57.8910302518
 11
461.6135161007
 21
62.0910302518
  0
LINE
  5
338
100
AcDbEntity
  8
0
100
AcDbLine
 62
7
  6
CONTINUOUS
 10
463.8135161007
 20
57.8910302518
 11
463.8135161007
 21
62.0910302518
  0
LINE
  5
339
100
AcDbEntity
  8
0
100
AcDbLine
 62
7
  6
CONTINUOUS
 10
408.7135161007
 20
11.8910302518
 11
576.7135161007
 21
11.8910302518
  0
LINE
  5
33A
100
AcDbEntity
  8
0
100
AcDbLine
 62
7
  6
CONTINUOUS
 10
471.6135161007
 20
57.8910302518
 11
471.6135161007
 21
62.0910302518
  0
LINE
  5
33B
100
AcDbEntity
  8
0
100
AcDbLine
 62
7
  6
CONTINUOUS
 10
473.8135161007
 20
57.8910302518
 11
473.8135161007
 21
62.0910302518
  0
LINE
  5
33C
100
AcDbEntity
  8
0
100
AcDbLine
 62
7
  6
CONTINUOUS
 10
481.6135161007
 20
57.8910302518
 11
481.6135161007
 21
62.0910302518
  0
LINE
  5
33D
100
AcDbEntity
  8
0
100
AcDbLine
 62
7
  6
CONTINUOUS
 10
483.8135161007
 20
57.8910302518
 11
483.8135161007
 21
62.0910302518
  0
LINE
  5
33E
100
AcDbEntity
  8
0
100
AcDbLine
 62
7
  6
CONTINUOUS
 10
491.6135161007
 20
57.8910302518
 11
491.6135161007
 21
62.0910302518
  0
LINE
  5
33F
100
AcDbEntity
  8
0
100
AcDbLine
 62
7
  6
CONTINUOUS
 10
458.7135161007
 20
35.8910302518
 11
472.7135161007
 21
35.8910302518
  0
LINE
  5
340
100
AcDbEntity
  8
0
100
AcDbLine
 62
7
  6
CONTINUOUS
 10
493.8135161007
 20
57.8910302518
 11
493.8135161007
 21
62.0910302518
  0
LINE
  5
341
100
AcDbEntity
  8
0
100
AcDbLine
 62
7
  6
CONTINUOUS
 10
472.7135161007
 20
42.8910302518
 11
458.7135161007
 21
42.8910302518
  0
LINE
  5
342
100
AcDbEntity
  8
0
100
AcDbLine
 62
7
  6
CONTINUOUS
 10
501.6135161007
 20
57.8910302518
 11
501.6135161007
 21
62.0910302518
  0
LINE
  5
343
100
AcDbEntity
  8
0
100
AcDbLine
 62
7
  6
CONTINUOUS
 10
503.8135161007
 20
57.8910302518
 11
503.8135161007
 21
62.0910302518
  0
LINE
  5
344
100
AcDbEntity
  8
0
100
AcDbLine
 62
7
  6
CONTINUOUS
 10
511.6135161007
 20
57.8910302518
 11
511.6135161007
 21
62.0910302518
  0
LINE
  5
345
100
AcDbEntity
  8
0
100
AcDbLine
 62
7
  6
CONTINUOUS
 10
513.8135161007
 20
57.8910302518
 11
513.8135161007
 21
62.0910302518
  0
LINE
  5
346
100
AcDbEntity
  8
0
100
AcDbLine
 62
7
  6
CONTINUOUS
 10
563.8135161007
 20
57.8910302518
 11
561.6135161007
 21
57.8910302518
  0
LINE
  5
347
100
AcDbEntity
  8
0
100
AcDbLine
 62
7
  6
CONTINUOUS
 10
553.8135161007
 20
57.8910302518
 11
551.6135161007
 21
57.8910302518
  0
LINE
  5
348
100
AcDbEntity
  8
0
100
AcDbLine
 62
7
  6
CONTINUOUS
 10
543.8135161007
 20
57.8910302518
 11
541.6135161007
 21
57.8910302518
  0
LINE
  5
349
100
AcDbEntity
  8
0
100
AcDbLine
 62
7
  6
CONTINUOUS
 10
533.8135161007
 20
57.8910302518
 11
531.6135161007
 21
57.8910302518
  0
LINE
  5
34A
100
AcDbEntity
  8
0
100
AcDbLine
 62
7
  6
CONTINUOUS
 10
523.8135161007
 20
57.8910302518
 11
521.6135161007
 21
57.8910302518
  0
LINE
  5
34B
100
AcDbEntity
  8
0
100
AcDbLine
 62
7
  6
CONTINUOUS
 10
513.8135161007
 20
57.8910302518
 11
511.6135161007
 21
57.8910302518
  0
LINE
  5
34C
100
AcDbEntity
  8
0
100
AcDbLine
 62
7
  6
CONTINUOUS
 10
503.8135161007
 20
57.8910302518
 11
501.6135161007
 21
57.8910302518
  0
LINE
  5
34D
100
AcDbEntity
  8
0
100
AcDbLine
 62
7
  6
CONTINUOUS
 10
493.8135161007
 20
57.8910302518
 11
491.6135161007
 21
57.8910302518
  0
LINE
  5
34E
100
AcDbEntity
  8
0
100
AcDbLine
 62
7
  6
CONTINUOUS
 10
483.8135161007
 20
57.8910302518
 11
481.6135161007
 21
57.8910302518
  0
LINE
  5
34F
100
AcDbEntity
  8
0
100
AcDbLine
 62
7
  6
CONTINUOUS
 10
473.8135161007
 20
57.8910302518
 11
471.6135161007
 21
57.8910302518
  0
LINE
  5
350
100
AcDbEntity
  8
0
100
AcDbLine
 62
7
  6
CONTINUOUS
 10
463.8135161007
 20
57.8910302518
 11
461.6135161007
 21
57.8910302518
  0
LINE
  5
351
100
AcDbEntity
  8
0
100
AcDbLine
 62
7
  6
CONTINUOUS
 10
453.8135161007
 20
57.8910302518
 11
451.6135161007
 21
57.8910302518
  0
LINE
  5
352
100
AcDbEntity
  8
0
100
AcDbLine
 62
7
  6
CONTINUOUS
 10
443.8135161007
 20
57.8910302518
 11
441.6135161007
 21
57.8910302518
  0
LINE
  5
353
100
AcDbEntity
  8
0
100
AcDbLine
 62
7
  6
CONTINUOUS
 10
433.8135161007
 20
57.8910302518
 11
431.6135161007
 21
57.8910302518
  0
LINE
  5
354
100
AcDbEntity
  8
0
100
AcDbLine
 62
7
  6
CONTINUOUS
 10
423.8135161007
 20
57.8910302518
 11
421.6135161007
 21
57.8910302518
  0
LINE
  5
355
100
AcDbEntity
  8
0
100
AcDbLine
 62
7
  6
CONTINUOUS
 10
563.8135161007
 20
62.0910302518
 11
561.6135161007
 21
62.0910302518
  0
LINE
  5
356
100
AcDbEntity
  8
0
100
AcDbLine
 62
7
  6
CONTINUOUS
 10
553.8135161007
 20
62.0910302518
 11
551.6135161007
 21
62.0910302518
  0
LINE
  5
357
100
AcDbEntity
  8
0
100
AcDbLine
 62
7
  6
CONTINUOUS
 10
543.8135161007
 20
62.0910302518
 11
541.6135161007
 21
62.0910302518
  0
LINE
  5
358
100
AcDbEntity
  8
0
100
AcDbLine
 62
7
  6
CONTINUOUS
 10
533.8135161007
 20
62.0910302518
 11
531.6135161007
 21
62.0910302518
  0
LINE
  5
359
100
AcDbEntity
  8
0
100
AcDbLine
 62
7
  6
CONTINUOUS
 10
523.8135161007
 20
62.0910302518
 11
521.6135161007
 21
62.0910302518
  0
LINE
  5
35A
100
AcDbEntity
  8
0
100
AcDbLine
 62
7
  6
CONTINUOUS
 10
513.8135161007
 20
62.0910302518
 11
511.6135161007
 21
62.0910302518
  0
LINE
  5
35B
100
AcDbEntity
  8
0
100
AcDbLine
 62
7
  6
CONTINUOUS
 10
503.8135161007
 20
62.0910302518
 11
501.6135161007
 21
62.0910302518
  0
LINE
  5
35C
100
AcDbEntity
  8
0
100
AcDbLine
 62
7
  6
CONTINUOUS
 10
493.8135161007
 20
62.0910302518
 11
491.6135161007
 21
62.0910302518
  0
LINE
  5
35D
100
AcDbEntity
  8
0
100
AcDbLine
 62
7
  6
CONTINUOUS
 10
483.8135161007
 20
62.0910302518
 11
481.6135161007
 21
62.0910302518
  0
LINE
  5
35E
100
AcDbEntity
  8
0
100
AcDbLine
 62
7
  6
CONTINUOUS
 10
473.8135161007
 20
62.0910302518
 11
471.6135161007
 21
62.0910302518
  0
LINE
  5
35F
100
AcDbEntity
  8
0
100
AcDbLine
 62
7
  6
CONTINUOUS
 10
463.8135161007
 20
62.0910302518
 11
461.6135161007
 21
62.0910302518
  0
LINE
  5
360
100
AcDbEntity
  8
0
100
AcDbLine
 62
7
  6
CONTINUOUS
 10
453.8135161007
 20
62.0910302518
 11
451.6135161007
 21
62.0910302518
  0
LINE
  5
361
100
AcDbEntity
  8
0
100
AcDbLine
 62
7
  6
CONTINUOUS
 10
443.8135161007
 20
62.0910302518
 11
441.6135161007
 21
62.0910302518
  0
LINE
  5
362
100
AcDbEntity
  8
0
100
AcDbLine
 62
7
  6
CONTINUOUS
 10
433.8135161007
 20
62.0910302518
 11
431.6135161007
 21
62.0910302518
  0
LINE
  5
363
100
AcDbEntity
  8
0
100
AcDbLine
 62
7
  6
CONTINUOUS
 10
423.8135161007
 20
62.0910302518
 11
421.6135161007
 21
62.0910302518
  0
LINE
  5
364
100
AcDbEntity
  8
0
100
AcDbLine
 62
7
  6
CONTINUOUS
 10
521.6135161007
 20
57.8910302518
 11
521.6135161007
 21
62.0910302518
  0
LINE
  5
365
100
AcDbEntity
  8
0
100
AcDbLine
 62
7
  6
CONTINUOUS
 10
576.7135161007
 20
66.8910302518
 11
408.7135161007
 21
66.8910302518
  0
LINE
  5
366
100
AcDbEntity
  8
0
100
AcDbLine
 62
7
  6
CONTINUOUS
 10
523.8135161007
 20
57.8910302518
 11
523.8135161007
 21
62.0910302518
  0
LINE
  5
367
100
AcDbEntity
  8
0
100
AcDbLine
 62
7
  6
CONTINUOUS
 10
531.6135161007
 20
57.8910302518
 11
531.6135161007
 21
62.0910302518
  0
LINE
  5
368
100
AcDbEntity
  8
0
100
AcDbLine
 62
7
  6
CONTINUOUS
 10
533.8135161007
 20
57.8910302518
 11
533.8135161007
 21
62.0910302518
  0
LINE
  5
369
100
AcDbEntity
  8
0
100
AcDbLine
 62
7
  6
CONTINUOUS
 10
541.6135161007
 20
57.8910302518
 11
541.6135161007
 21
62.0910302518
  0
LINE
  5
36A
100
AcDbEntity
  8
0
100
AcDbLine
 62
7
  6
CONTINUOUS
 10
543.8135161007
 20
57.8910302518
 11
543.8135161007
 21
62.0910302518
  0
LINE
  5
36B
100
AcDbEntity
  8
0
100
AcDbLine
 62
7
  6
CONTINUOUS
 10
551.6135161007
 20
57.8910302518
 11
551.6135161007
 21
62.0910302518
  0
LINE
  5
36C
100
AcDbEntity
  8
0
100
AcDbLine
 62
7
  6
CONTINUOUS
 10
553.8135161007
 20
57.8910302518
 11
553.8135161007
 21
62.0910302518
  0
LINE
  5
36D
100
AcDbEntity
  8
0
100
AcDbLine
 62
7
  6
CONTINUOUS
 10
561.6135161007
 20
57.8910302518
 11
561.6135161007
 21
62.0910302518
  0
LINE
  5
36E
100
AcDbEntity
  8
0
100
AcDbLine
 62
7
  6
CONTINUOUS
 10
563.8135161007
 20
57.8910302518
 11
563.8135161007
 21
62.0910302518
  0
LINE
  5
36F
100
AcDbEntity
  8
0
100
AcDbLine
 62
7
  6
CONTINUOUS
 10
576.7135161007
 20
11.8910302518
 11
576.7135161007
 21
66.8910302518
  0
LINE
  5
370
100
AcDbEntity
  8
0
100
AcDbLine
 62
7
  6
CONTINUOUS
 10
410.7064806914
 20
134.1575151928
 11
410.7064806914
 21
79.1575151928
  0
LINE
  5
371
100
AcDbEntity
  8
0
100
AcDbLine
 62
7
  6
CONTINUOUS
 10
423.6064806914
 20
125.1575151928
 11
423.6064806914
 21
129.3575151928
  0
LINE
  5
372
100
AcDbEntity
  8
0
100
AcDbLine
 62
7
  6
CONTINUOUS
 10
425.8064806914
 20
125.1575151928
 11
425.8064806914
 21
129.3575151928
  0
LINE
  5
373
100
AcDbEntity
  8
0
100
AcDbLine
 62
7
  6
CONTINUOUS
 10
433.6064806914
 20
125.1575151928
 11
433.6064806914
 21
129.3575151928
  0
LINE
  5
374
100
AcDbEntity
  8
0
100
AcDbLine
 62
7
  6
CONTINUOUS
 10
435.8064806914
 20
125.1575151928
 11
435.8064806914
 21
129.3575151928
  0
LINE
  5
375
100
AcDbEntity
  8
0
100
AcDbLine
 62
7
  6
CONTINUOUS
 10
443.6064806914
 20
125.1575151928
 11
443.6064806914
 21
129.3575151928
  0
LINE
  5
376
100
AcDbEntity
  8
0
100
AcDbLine
 62
7
  6
CONTINUOUS
 10
445.8064806914
 20
125.1575151928
 11
445.8064806914
 21
129.3575151928
  0
LINE
  5
377
100
AcDbEntity
  8
0
100
AcDbLine
 62
7
  6
CONTINUOUS
 10
453.6064806914
 20
125.1575151928
 11
453.6064806914
 21
129.3575151928
  0
LINE
  5
378
100
AcDbEntity
  8
0
100
AcDbLine
 62
7
  6
CONTINUOUS
 10
455.8064806914
 20
125.1575151928
 11
455.8064806914
 21
129.3575151928
  0
LINE
  5
379
100
AcDbEntity
  8
0
100
AcDbLine
 62
7
  6
CONTINUOUS
 10
463.6064806914
 20
125.1575151928
 11
463.6064806914
 21
129.3575151928
  0
LINE
  5
37A
100
AcDbEntity
  8
0
100
AcDbLine
 62
7
  6
CONTINUOUS
 10
465.8064806914
 20
125.1575151928
 11
465.8064806914
 21
129.3575151928
  0
LINE
  5
37B
100
AcDbEntity
  8
0
100
AcDbLine
 62
7
  6
CONTINUOUS
 10
410.7064806914
 20
79.1575151928
 11
578.7064806914
 21
79.1575151928
  0
LINE
  5
37C
100
AcDbEntity
  8
0
100
AcDbLine
 62
7
  6
CONTINUOUS
 10
473.6064806914
 20
125.1575151928
 11
473.6064806914
 21
129.3575151928
  0
LINE
  5
37D
100
AcDbEntity
  8
0
100
AcDbLine
 62
7
  6
CONTINUOUS
 10
475.8064806914
 20
125.1575151928
 11
475.8064806914
 21
129.3575151928
  0
LINE
  5
37E
100
AcDbEntity
  8
0
100
AcDbLine
 62
7
  6
CONTINUOUS
 10
483.6064806914
 20
125.1575151928
 11
483.6064806914
 21
129.3575151928
  0
LINE
  5
37F
100
AcDbEntity
  8
0
100
AcDbLine
 62
7
  6
CONTINUOUS
 10
485.8064806914
 20
125.1575151928
 11
485.8064806914
 21
129.3575151928
  0
LINE
  5
380
100
AcDbEntity
  8
0
100
AcDbLine
 62
7
  6
CONTINUOUS
 10
493.6064806914
 20
125.1575151928
 11
493.6064806914
 21
129.3575151928
  0
LINE
  5
381
100
AcDbEntity
  8
0
100
AcDbLine
 62
7
  6
CONTINUOUS
 10
474.7079013283
 20
103.1676776418
 11
460.707902485
 21
103.1619868323
  0
LINE
  5
382
100
AcDbEntity
  8
0
100
AcDbLine
 62
7
  6
CONTINUOUS
 10
495.8064806914
 20
125.1575151928
 11
495.8064806914
 21
129.3575151928
  0
LINE
  5
383
100
AcDbEntity
  8
0
100
AcDbLine
 62
7
  6
CONTINUOUS
 10
460.7050570802
 20
110.161986254
 11
474.7050559236
 21
110.1676770635
  0
LINE
  5
384
100
AcDbEntity
  8
0
100
AcDbLine
 62
7
  6
CONTINUOUS
 10
503.6064806914
 20
125.1575151928
 11
503.6064806914
 21
129.3575151928
  0
LINE
  5
385
100
AcDbEntity
  8
0
100
AcDbLine
 62
7
  6
CONTINUOUS
 10
505.8064806914
 20
125.1575151928
 11
505.8064806914
 21
129.3575151928
  0
LINE
  5
386
100
AcDbEntity
  8
0
100
AcDbLine
 62
7
  6
CONTINUOUS
 10
513.6064806914
 20
125.1575151928
 11
513.6064806914
 21
129.3575151928
  0
LINE
  5
387
100
AcDbEntity
  8
0
100
AcDbLine
 62
7
  6
CONTINUOUS
 10
515.8064806914
 20
125.1575151928
 11
515.8064806914
 21
129.3575151928
  0
LINE
  5
388
100
AcDbEntity
  8
0
100
AcDbLine
 62
7
  6
CONTINUOUS
 10
565.8064806914
 20
125.1575151928
 11
563.6064806914
 21
125.1575151928
  0
LINE
  5
389
100
AcDbEntity
  8
0
100
AcDbLine
 62
7
  6
CONTINUOUS
 10
555.8064806914
 20
125.1575151928
 11
553.6064806914
 21
125.1575151928
  0
LINE
  5
38A
100
AcDbEntity
  8
0
100
AcDbLine
 62
7
  6
CONTINUOUS
 10
545.8064806914
 20
125.1575151928
 11
543.6064806914
 21
125.1575151928
  0
LINE
  5
38B
100
AcDbEntity
  8
0
100
AcDbLine
 62
7
  6
CONTINUOUS
 10
535.8064806914
 20
125.1575151928
 11
533.6064806914
 21
125.1575151928
  0
LINE
  5
38C
100
AcDbEntity
  8
0
100
AcDbLine
 62
7
  6
CONTINUOUS
 10
525.8064806914
 20
125.1575151928
 11
523.6064806914
 21
125.1575151928
  0
LINE
  5
38D
100
AcDbEntity
  8
0
100
AcDbLine
 62
7
  6
CONTINUOUS
 10
515.8064806914
 20
125.1575151928
 11
513.6064806914
 21
125.1575151928
  0
LINE
  5
38E
100
AcDbEntity
  8
0
100
AcDbLine
 62
7
  6
CONTINUOUS
 10
505.8064806914
 20
125.1575151928
 11
503.6064806914
 21
125.1575151928
  0
LINE
  5
38F
100
AcDbEntity
  8
0
100
AcDbLine
 62
7
  6
CONTINUOUS
 10
495.8064806914
 20
125.1575151928
 11
493.6064806914
 21
125.1575151928
  0
LINE
  5
390
100
AcDbEntity
  8
0
100
AcDbLine
 62
7
  6
CONTINUOUS
 10
485.8064806914
 20
125.1575151928
 11
483.6064806914
 21
125.1575151928
  0
LINE
  5
391
100
AcDbEntity
  8
0
100
AcDbLine
 62
7
  6
CONTINUOUS
 10
475.8064806914
 20
125.1575151928
 11
473.6064806914
 21
125.1575151928
  0
LINE
  5
392
100
AcDbEntity
  8
0
100
AcDbLine
 62
7
  6
CONTINUOUS
 10
465.8064806914
 20
125.1575151928
 11
463.6064806914
 21
125.1575151928
  0
LINE
  5
393
100
AcDbEntity
  8
0
100
AcDbLine
 62
7
  6
CONTINUOUS
 10
455.8064806914
 20
125.1575151928
 11
453.6064806914
 21
125.1575151928
  0
LINE
  5
394
100
AcDbEntity
  8
0
100
AcDbLine
 62
7
  6
CONTINUOUS
 10
445.8064806914
 20
125.1575151928
 11
443.6064806914
 21
125.1575151928
  0
LINE
  5
395
100
AcDbEntity
  8
0
100
AcDbLine
 62
7
  6
CONTINUOUS
 10
435.8064806914
 20
125.1575151928
 11
433.6064806914
 21
125.1575151928
  0
LINE
  5
396
100
AcDbEntity
  8
0
100
AcDbLine
 62
7
  6
CONTINUOUS
 10
425.8064806914
 20
125.1575151928
 11
423.6064806914
 21
125.1575151928
  0
LINE
  5
397
100
AcDbEntity
  8
0
100
AcDbLine
 62
7
  6
CONTINUOUS
 10
565.8064806914
 20
129.3575151928
 11
563.6064806914
 21
129.3575151928
  0
LINE
  5
398
100
AcDbEntity
  8
0
100
AcDbLine
 62
7
  6
CONTINUOUS
 10
555.8064806914
 20
129.3575151928
 11
553.6064806914
 21
129.3575151928
  0
LINE
  5
399
100
AcDbEntity
  8
0
100
AcDbLine
 62
7
  6
CONTINUOUS
 10
545.8064806914
 20
129.3575151928
 11
543.6064806914
 21
129.3575151928
  0
LINE
  5
39A
100
AcDbEntity
  8
0
100
AcDbLine
 62
7
  6
CONTINUOUS
 10
535.8064806914
 20
129.3575151928
 11
533.6064806914
 21
129.3575151928
  0
LINE
  5
39B
100
AcDbEntity
  8
0
100
AcDbLine
 62
7
  6
CONTINUOUS
 10
525.8064806914
 20
129.3575151928
 11
523.6064806914
 21
129.3575151928
  0
LINE
  5
39C
100
AcDbEntity
  8
0
100
AcDbLine
 62
7
  6
CONTINUOUS
 10
515.8064806914
 20
129.3575151928
 11
513.6064806914
 21
129.3575151928
  0
LINE
  5
39D
100
AcDbEntity
  8
0
100
AcDbLine
 62
7
  6
CONTINUOUS
 10
505.8064806914
 20
129.3575151928
 11
503.6064806914
 21
129.3575151928
  0
LINE
  5
39E
100
AcDbEntity
  8
0
100
AcDbLine
 62
7
  6
CONTINUOUS
 10
495.8064806914
 20
129.3575151928
 11
493.6064806914
 21
129.3575151928
  0
LINE
  5
39F
100
AcDbEntity
  8
0
100
AcDbLine
 62
7
  6
CONTINUOUS
 10
485.8064806914
 20
129.3575151928
 11
483.6064806914
 21
129.3575151928
  0
LINE
  5
3A0
100
AcDbEntity
  8
0
100
AcDbLine
 62
7
  6
CONTINUOUS
 10
475.8064806914
 20
129.3575151928
 11
473.6064806914
 21
129.3575151928
  0
LINE
  5
3A1
100
AcDbEntity
  8
0
100
AcDbLine
 62
7
  6
CONTINUOUS
 10
465.8064806914
 20
129.3575151928
 11
463.6064806914
 21
129.3575151928
  0
LINE
  5
3A2
100
AcDbEntity
  8
0
100
AcDbLine
 62
7
  6
CONTINUOUS
 10
455.8064806914
 20
129.3575151928
 11
453.6064806914
 21
129.3575151928
  0
LINE
  5
3A3
100
AcDbEntity
  8
0
100
AcDbLine
 62
7
  6
CONTINUOUS
 10
445.8064806914
 20
129.3575151928
 11
443.6064806914
 21
129.3575151928
  0
LINE
  5
3A4
100
AcDbEntity
  8
0
100
AcDbLine
 62
7
  6
CONTINUOUS
 10
435.8064806914
 20
129.3575151928
 11
433.6064806914
 21
129.3575151928
  0
LINE
  5
3A5
100
AcDbEntity
  8
0
100
AcDbLine
 62
7
  6
CONTINUOUS
 10
425.8064806914
 20
129.3575151928
 11
423.6064806914
 21
129.3575151928
  0
LINE
  5
3A6
100
AcDbEntity
  8
0
100
AcDbLine
 62
7
  6
CONTINUOUS
 10
523.6064806914
 20
125.1575151928
 11
523.6064806914
 21
129.3575151928
  0
LINE
  5
3A7
100
AcDbEntity
  8
0
100
AcDbLine
 62
7
  6
CONTINUOUS
 10
578.7064806914
 20
134.1575151928
 11
410.7064806914
 21
134.1575151928
  0
LINE
  5
3A8
100
AcDbEntity
  8
0
100
AcDbLine
 62
7
  6
CONTINUOUS
 10
525.8064806914
 20
125.1575151928
 11
525.8064806914
 21
129.3575151928
  0
LINE
  5
3A9
100
AcDbEntity
  8
0
100
AcDbLine
 62
7
  6
CONTINUOUS
 10
533.6064806914
 20
125.1575151928
 11
533.6064806914
 21
129.3575151928
  0
LINE
  5
3AA
100
AcDbEntity
  8
0
100
AcDbLine
 62
7
  6
CONTINUOUS
 10
535.8064806914
 20
125.1575151928
 11
535.8064806914
 21
129.3575151928
  0
LINE
  5
3AB
100
AcDbEntity
  8
0
100
AcDbLine
 62
7
  6
CONTINUOUS
 10
543.6064806914
 20
125.1575151928
 11
543.6064806914
 21
129.3575151928
  0
LINE
  5
3AC
100
AcDbEntity
  8
0
100
AcDbLine
 62
7
  6
CONTINUOUS
 10
545.8064806914
 20
125.1575151928
 11
545.8064806914
 21
129.3575151928
  0
LINE
  5
3AD
100
AcDbEntity
  8
0
100
AcDbLine
 62
7
  6
CONTINUOUS
 10
553.6064806914
 20
125.1575151928
 11
553.6064806914
 21
129.3575151928
  0
LINE
  5
3AE
100
AcDbEntity
  8
0
100
AcDbLine
 62
7
  6
CONTINUOUS
 10
555.8064806914
 20
125.1575151928
 11
555.8064806914
 21
129.3575151928
  0
LINE
  5
3AF
100
AcDbEntity
  8
0
100
AcDbLine
 62
7
  6
CONTINUOUS
 10
563.6064806914
 20
125.1575151928
 11
563.6064806914
 21
129.3575151928
  0
LINE
  5
3B0
100
AcDbEntity
  8
0
100
AcDbLine
 62
7
  6
CONTINUOUS
 10
565.8064806914
 20
125.1575151928
 11
565.8064806914
 21
129.3575151928
  0
LINE
  5
3B1
100
AcDbEntity
  8
0
100
AcDbLine
 62
7
  6
CONTINUOUS
 10
578.7064806914
 20
79.1575151928
 11
578.7064806914
 21
134.1575151928
  0
LINE
  5
3B2
100
AcDbEntity
  8
0
100
AcDbLine
 62
7
  6
CONTINUOUS
 10
411.8606232033
 20
174.1423053675
 11
411.8606232033
 21
147.9423053675
  0
LINE
  5
3B3
100
AcDbEntity
  8
0
100
AcDbLine
 62
7
  6
CONTINUOUS
 10
416.8606232033
 20
142.9423053675
 11
461.8606232033
 21
142.9423053675
  0
LINE
  5
3B4
100
AcDbEntity
  8
0
100
AcDbLine
 62
7
  6
CONTINUOUS
 10
461.8606232033
 20
179.1423053675
 11
416.8606232033
 21
179.1423053675
  0
LINE
  5
3B5
100
AcDbEntity
  8
0
100
AcDbLine
 62
7
  6
CONTINUOUS
 10
466.8606232033
 20
147.9423053675
 11
466.8606232033
 21
174.1423053675
  0
ARC
  5
3B6
100
AcDbEntity
  8
0
100
AcDbCircle
 62
7
  6
CONTINUOUS
 10
598.7468285114
 20
220.6442236943
 40
10.0
100
AcDbArc
 50
45.0
 51
90.0
  0
ARC
  5
3B7
100
AcDbEntity
  8
0
100
AcDbCircle
 62
7
  6
CONTINUOUS
 10
420.7468285114
 20
220.6442236943
 40
10.0
100
AcDbArc
 50
90.0
 51
135.0
  0
CIRCLE
  5
3B8
100
AcDbEntity
  8
0
100
AcDbCircle
 62
7
  6
CONTINUOUS
 10
585.7468285114
 20
221.6442236943
 40
1.7
  0
CIRCLE
  5
3B9
100
AcDbEntity
  8
0
100
AcDbCircle
 62
7
  6
CONTINUOUS
 10
433.7468285114
 20
221.6442236943
 40
1.7
  0
ARC
  5
3BA
100
AcDbEntity
  8
0
100
AcDbCircle
 62
7
  6
CONTINUOUS
 10
747.7137250046
 20
248.3970383274
 40
10.0
100
AcDbArc
 50
45.0
 51
90.0
  0
ARC
  5
3BB
100
AcDbEntity
  8
0
100
AcDbCircle
 62
7
  6
CONTINUOUS
 10
409.7137250046
 20
248.3970383274
 40
10.0
100
AcDbArc
 50
90.0
 51
135.0
  0
CIRCLE
  5
3BC
100
AcDbEntity
  8
0
100
AcDbCircle
 62
7
  6
CONTINUOUS
 10
734.7137250046
 20
249.3970383274
 40
1.7
  0
CIRCLE
  5
3BD
100
AcDbEntity
  8
0
100
AcDbCircle
 62
7
  6
CONTINUOUS
 10
422.7137250046
 20
249.3970383274
 40
1.7
  0
ARC
  5
3BE
100
AcDbEntity
  8
0
100
AcDbCircle
 62
7
  6
CONTINUOUS
 10
1105.1090394329
 20
82.121957342
 40
10.0
100
AcDbArc
 50
270.0
 51
360.0
  0
ARC
  5
3BF
100
AcDbEntity
  8
0
100
AcDbCircle
 62
7
  6
CONTINUOUS
 10
1105.1090394329
 20
260.121957342
 40
10.0
100
AcDbArc
 50
0.0
 51
90.0
  0
ARC
  5
3C0
100
AcDbEntity
  8
0
100
AcDbCircle
 62
7
  6
CONTINUOUS
 10
767.1090394329
 20
260.121957342
 40
10.0
100
AcDbArc
 50
90.0
 51
180.0
  0
ARC
  5
3C1
100
AcDbEntity
  8
0
100
AcDbCircle
 62
7
  6
CONTINUOUS
 10
767.1090394329
 20
82.121957342
 40
10.0
100
AcDbArc
 50
180.0
 51
270.0
  0
CIRCLE
  5
3C2
100
AcDbEntity
  8
0
100
AcDbCircle
 62
7
  6
CONTINUOUS
 10
1107.1090394329
 20
80.121957342
 40
1.7
  0
CIRCLE
  5
3C3
100
AcDbEntity
  8
0
100
AcDbCircle
 62
7
  6
CONTINUOUS
 10
1107.1090394329
 20
262.121957342
 40
1.7
  0
CIRCLE
  5
3C4
100
AcDbEntity
  8
0
100
AcDbCircle
 62
7
  6
CONTINUOUS
 10
765.1090394329
 20
262.121957342
 40
1.7
  0
CIRCLE
  5
3C5
100
AcDbEntity
  8
0
100
AcDbCircle
 62
7
  6
CONTINUOUS
 10
765.1090394329
 20
80.121957342
 40
1.7
  0
CIRCLE
  5
3C6
100
AcDbEntity
  8
0
100
AcDbCircle
 62
7
  6
CONTINUOUS
 10
913.0124146498
 20
35.770902063
 40
1.7
  0
CIRCLE
  5
3C7
100
AcDbEntity
  8
0
100
AcDbCircle
 62
7
  6
CONTINUOUS
 10
597.0124146498
 20
35.770902063
 40
1.7
  0
CIRCLE
  5
3C8
100
AcDbEntity
  8
0
100
AcDbCircle
 62
7
  6
CONTINUOUS
 10
587.1202153457
 20
-49.376313117
 40
2.0
  0
CIRCLE
  5
3C9
100
AcDbEntity
  8
0
100
AcDbCircle
 62
7
  6
CONTINUOUS
 10
559.1202153457
 20
-49.376313117
 40
2.0
  0
CIRCLE
  5
3CA
100
AcDbEntity
  8
0
100
AcDbCircle
 62
7
  6
CONTINUOUS
 10
411.1602153457
 20
-31.876313117
 40
1.7
  0
CIRCLE
  5
3CB
100
AcDbEntity
  8
0
100
AcDbCircle
 62
7
  6
CONTINUOUS
 10
727.1602153457
 20
-31.876313117
 40
1.7
  0
CIRCLE
  5
3CC
100
AcDbEntity
  8
0
100
AcDbCircle
 62
7
  6
CONTINUOUS
 10
525.3135161007
 20
31.9910302518
 40
15.0
  0
CIRCLE
  5
3CD
100
AcDbEntity
  8
_ACHSEN
100
AcDbCircle
 62
7
  6
CONTINUOUS
 10
432.7135161007
 20
39.3910302518
 40
5.5
  0
ARC
  5
3CE
100
AcDbEntity
  8
0
100
AcDbCircle
 62
7
  6
CONTINUOUS
 10
472.7135161007
 20
39.3910302518
 40
3.5
100
AcDbArc
 50
270.0
 51
90.0
  0
ARC
  5
3CF
100
AcDbEntity
  8
0
100
AcDbCircle
 62
7
  6
CONTINUOUS
 10
458.7135161007
 20
39.3910302518
 40
3.5
100
AcDbArc
 50
90.0
 51
270.0
  0
CIRCLE
  5
3D0
100
AcDbEntity
  8
0
100
AcDbCircle
 62
7
  6
CONTINUOUS
 10
483.7135161007
 20
39.3910302518
 40
1.75
  0
CIRCLE
  5
3D1
100
AcDbEntity
  8
0
100
AcDbCircle
 62
7
  6
CONTINUOUS
 10
447.7135161007
 20
39.3910302518
 40
1.75
  0
CIRCLE
  5
3D2
100
AcDbEntity
  8
0
100
AcDbCircle
 62
7
  6
CONTINUOUS
 10
414.7135161007
 20
39.3910302518
 40
1.7
  0
CIRCLE
  5
3D3
100
AcDbEntity
  8
0
100
AcDbCircle
 62
7
  6
CONTINUOUS
 10
570.7135161007
 20
39.3910302518
 40
1.7
  0
CIRCLE
  5
3D4
100
AcDbEntity
  8
0
100
AcDbCircle
 62
7
  6
CONTINUOUS
 10
548.7135161007
 20
43.4910302518
 40
1.7
  0
CIRCLE
  5
3D5
100
AcDbEntity
  8
0
100
AcDbCircle
 62
7
  6
CONTINUOUS
 10
503.7135161007
 20
43.4910302518
 40
1.7
  0
CIRCLE
  5
3D6
100
AcDbEntity
  8
0
100
AcDbCircle
 62
7
  6
CONTINUOUS
 10
503.7135161007
 20
18.4910302518
 40
1.7
  0
CIRCLE
  5
3D7
100
AcDbEntity
  8
0
100
AcDbCircle
 62
7
  6
CONTINUOUS
 10
548.7135161007
 20
18.4910302518
 40
1.7
  0
ARC
  5
3D8
100
AcDbEntity
  8
0
100
AcDbCircle
 62
7
  6
CONTINUOUS
 10
474.706478626
 20
106.6676773526
 40
3.5
100
AcDbArc
 50
270.0232899554
 51
90.0232899554
  0
ARC
  5
3D9
100
AcDbEntity
  8
0
100
AcDbCircle
 62
7
  6
CONTINUOUS
 10
460.7064797826
 20
106.6619865431
 40
3.5
100
AcDbArc
 50
90.0232899554
 51
270.0232899554
  0
CIRCLE
  5
3DA
100
AcDbEntity
  8
0
100
AcDbCircle
 62
7
  6
CONTINUOUS
 10
485.7064777172
 20
106.672148703
 40
1.75
  0
CIRCLE
  5
3DB
100
AcDbEntity
  8
0
100
AcDbCircle
 62
7
  6
CONTINUOUS
 10
449.7064806914
 20
106.6575151928
 40
1.75
  0
CIRCLE
  5
3DC
100
AcDbEntity
  8
0
100
AcDbCircle
 62
7
  6
CONTINUOUS
 10
572.7064806914
 20
106.6575151928
 40
1.7
  0
CIRCLE
  5
3DD
100
AcDbEntity
  8
0
100
AcDbCircle
 62
7
  6
CONTINUOUS
 10
416.7064806914
 20
106.6575151928
 40
1.7
  0
ARC
  5
3DE
100
AcDbEntity
  8
0
100
AcDbCircle
 62
7
  6
CONTINUOUS
 10
461.8606232033
 20
147.9423053675
 40
5.0
100
AcDbArc
 50
270.0
 51
360.0
  0
ARC
  5
3DF
100
AcDbEntity
  8
0
100
AcDbCircle
 62
7
  6
CONTINUOUS
 10
461.8606232033
 20
174.1423053675
 40
5.0
100
AcDbArc
 50
0.0
 51
90.0
  0
ARC
  5
3E0
100
AcDbEntity
  8
0
100
AcDbCircle
 62
7
  6
CONTINUOUS
 10
416.8606232033
 20
174.1423053675
 40
5.0
100
AcDbArc
 50
90.0
 51
180.0
  0
ARC
  5
3E1
100
AcDbEntity
  8
0
100
AcDbCircle
 62
7
  6
CONTINUOUS
 10
416.8606232033
 20
147.9423053675
 40
5.0
100
AcDbArc
 50
180.0
 51
270.0
  0
CIRCLE
  5
3E2
100
AcDbEntity
  8
_ACHSEN
100
AcDbCircle
 62
7
  6
CONTINUOUS
 10
461.8606232033
 20
148.5423053675
 40
1.7
  0
CIRCLE
  5
3E3
100
AcDbEntity
  8
_ACHSEN
100
AcDbCircle
 62
7
  6
CONTINUOUS
 10
416.8606232033
 20
148.5423053675
 40
1.7
  0
CIRCLE
  5
3E4
100
AcDbEntity
  8
_ACHSEN
100
AcDbCircle
 62
7
  6
CONTINUOUS
 10
416.8606232033
 20
173.5423053675
 40
1.7
  0
CIRCLE
  5
3E5
100
AcDbEntity
  8
_ACHSEN
100
AcDbCircle
 62
7
  6
CONTINUOUS
 10
461.8606232033
 20
173.5423053675
 40
1.7
  0
CIRCLE
  5
3E6
100
AcDbEntity
  8
_ACHSEN
100
AcDbCircle
 62
7
  6
CONTINUOUS
 10
452.4606232033
 20
150.7923053675
 40
1.7
  0
CIRCLE
  5
3E7
100
AcDbEntity
  8
_ACHSEN
100
AcDbCircle
 62
7
  6
CONTINUOUS
 10
426.2606232033
 20
150.7923053675
 40
1.7
  0
CIRCLE
  5
3E8
100
AcDbEntity
  8
_ACHSEN
100
AcDbCircle
 62
7
  6
CONTINUOUS
 10
426.2606232033
 20
171.2923053675
 40
1.7
  0
CIRCLE
  5
3E9
100
AcDbEntity
  8
_ACHSEN
100
AcDbCircle
 62
7
  6
CONTINUOUS
 10
452.4606232033
 20
171.2923053675
 40
1.7
  0
CIRCLE
  5
3EA
100
AcDbEntity
  8
0
100
AcDbCircle
 62
7
  6
CONTINUOUS
 10
421.6732137364
 20
191.0008686511
 40
3.5
  0
CIRCLE
  5
3EB
100
AcDbEntity
  8
0
100
AcDbCircle
 62
7
  6
CONTINUOUS
 10
421.6732137364
 20
191.0008686511
 40
1.75
  0
ENDSEC
  0
SECTION
  2
OBJECTS
  0
DICTIONARY
  5
C
100
AcDbDictionary
280
0
281
1
  3
ACAD_GROUP
350
D
  3
ACAD_MLINESTYLE
350
17
  3
ACAD_LAYOUT
350
1A
  3
ACAD_PLOTSETTINGS
350
19
  3
ACAD_PLOTSTYLENAME
350
E
  0
DICTIONARY
  5
D
102
{ACAD_REACTORS
330
C
102
}
100
AcDbDictionary
280
0
281
1
  0
ACDBDICTIONARYWDFLT
  5
E
102
{ACAD_REACTORS
330
C
102
}
100
AcDbDictionary
281
1
  3
Normal
350
F
100
AcDbDictionaryWithDefault
340
F
  0
DICTIONARY
  5
17
102
{ACAD_REACTORS
330
C
102
}
100
AcDbDictionary
280
0
281
1
  3
Standard
350
18
  0
DICTIONARY
  5
19
102
{ACAD_REACTORS
330
C
102
}
100
AcDbDictionary
281
1
  0
DICTIONARY
  5
1A
102
{ACAD_REACTORS
330
C
102
}
100
AcDbDictionary
281
1
  3
Model
350
3EC
  3
Layout1
350
3ED
  0
ACDBPLACEHOLDER
  5
F
102
{ACAD_REACTORS
330
E
102
}
  0
MLINESTYLE
  5
18
102
{ACAD_REACTORS
330
17
102
}
100
AcDbMlineStyle
  2
STANDARD
 70
0
  3

 62
256
 51
90.0
 52
90.0
 71
2
 49
0.5
 62
256
  6
BYLAYER
 49
-0.5
 62
256
  6
BYLAYER
  0
LAYOUT
  5
3EC
102
{ACAD_REACTORS
330
1A
102
}
100
AcDbPlotSettings
  1

  2
none_device
  4

  6

 40
0.0
 41
0.0
 42
0.0
 43
0.0
 44
210.0
 45
297.0
 46
0.0
 47
0.0
 48
0.0
 49
0.0
140
0.0
141
0.0
142
1.0
143
1.0
 70
1024
 72
1
 73
0
 74
0
  7

 75
0
147
1.0
148
0.0
149
0.0
100
AcDbLayout
  1
Model
 70
0
 71
0
 10
0.0
 20
0.0
 11
210.0
 21
297.0
 12
0.0
 22
0.0
 32
0.0
 14
0.0
 24
0.0
 34
0.0
 15
0.0
 25
0.0
 35
0.0
146
0.0
 13
0.0
 23
0.0
 33
0.0
 16
1.0
 26
0.0
 36
0.0
 17
0.0
 27
1.0
 37
0.0
 76
0
330
20F
345
0
346
0
  0
LAYOUT
  5
3ED
102
{ACAD_REACTORS
330
1A
102
}
100
AcDbPlotSettings
  1

  2
none_device
  4

  6

 40
0.0
 41
0.0
 42
0.0
 43
0.0
 44
210.0
 45
297.0
 46
0.0
 47
0.0
 48
0.0
 49
0.0
140
0.0
141
0.0
142
1.0
143
1.0
 70
0
 72
1
 73
0
 74
0
  7

 75
0
147
1.0
148
0.0
149
0.0
100
AcDbLayout
  1
Layout1
 70
0
 71
1
 10
0.0
 20
0.0
 11
210.0
 21
297.0
 12
0.0
 22
0.0
 32
0.0
 14
0.0
 24
0.0
 34
0.0
 15
0.0
 25
0.0
 35
0.0
146
0.0
 13
0.0
 23
0.0
 33
0.0
 16
1.0
 26
0.0
 36
0.0
 17
0.0
 27
1.0
 37
0.0
 76
0
330
210
345
0
346
0
  0
ENDSEC
  0
EOF
